<?xml version="1.0" encoding="UTF-8" standalone="no"?>
<svg xmlns="http://www.w3.org/2000/svg" version="1.1" width="600" height="600">
  <circle cx="300" cy="300" r="300" style="fill:#cac5c0;stroke-width:6"/>
  <path d="m 138.0004,314.56798 c 0,-58.72198 12.36561,-112.87799 37.1458,-162.43197 C 205.84802,90.71999 247.88417,60.006 301.21841,60.006 c 52.78173,0 93.99594,26.154 123.62991,78.38402 24.76174,43.11597 37.1458,93.22199 37.1458,150.306 0,59.28593 -12.38406,112.88393 -37.1458,160.81798 -30.18618,60.34794 -72.21024,90.48601 -126.06653,90.48601 -51.1858,0 -91.82969,-25.84206 -122.01554,-77.55602 C 150.91822,418.27796 138.0004,368.98794 138.0004,314.56798 Z m 67.85366,-26.66397 c 0,77.55595 11.58024,137.90395 34.77023,181.00798 16.14551,30.14998 36.87607,45.24596 62.20142,45.24596 60.87663,0 91.3265,-63.03597 91.3265,-189.10798 0,-55.46396 -4.85378,-102.35399 -14.53183,-140.60396 -16.71012,-63.024 -44.98844,-94.56 -84.87044,-94.56 -59.27365,0 -88.89588,60.89998 -88.89588,182.658 z" />
</svg>
