<?xml version="1.0" encoding="UTF-8" standalone="no"?>
<svg xmlns="http://www.w3.org/2000/svg" version="1.1" width="600" height="600">
  <circle cx="300" cy="300" r="300" style="fill:#cac5c0;stroke-width:6"/>
  <path d="m 211.83607,111.81001 v 302.63398 c 0,35.98801 15.40241,53.988 46.15791,53.988 h 7.83019 v 20.51998 H 104.62813 v -20.51998 h 10.3621 c 29.58566,0 44.39963,-17.99999 44.39963,-53.988 V 215.964 c 0,-36.47999 -12.92955,-54.738 -38.80175,-54.738 h -15.95998 v -20.544 h 6.09608 c 31.42781,0 59.81412,-9.62397 85.14584,-28.878 l 15.96602,0.007 v 0 z m 58.56008,199.96803 c 0,-47.14205 9.87631,-90.49202 29.63968,-130.00808 24.85232,-49.15796 58.83047,-73.75797 101.89219,-73.75797 41.58593,0 74.53214,21.04797 98.85607,63.09602 19.77578,34.48796 29.67021,74.28599 29.67021,119.38799 0,47.15396 -9.88806,90.234 -29.67021,129.27001 -24.84595,48.17399 -58.54196,72.24598 -101.1179,72.24598 -41.05184,0 -73.75851,-20.79001 -98.11196,-62.37 -20.78424,-34.968 -31.15808,-74.25603 -31.15808,-117.86395 z m 54.73187,-22.05603 c 0,40.08001 4.30828,76.05597 12.93626,107.97596 13.18184,49.17002 34.70985,73.77005 64.62563,73.77005 48.66631,0 72.99025,-50.682 72.99025,-152.07601 0,-125.214 -26.36401,-187.80599 -79.09204,-187.80599 -47.64611,0 -71.47218,48.62998 -71.47218,145.96798 v 12.16801 0 z" />
</svg>
