<?xml version="1.0" encoding="UTF-8" standalone="no"?>
<svg xmlns="http://www.w3.org/2000/svg" version="1.1" width="1128.0001" height="600">
  <path style="fill:#cac5c0" d="M 828.00015,0 H 300.00007 V 0 C 134.32202,0 0,134.31005 0,299.98799 0,465.67821 134.32202,600 300.00007,600 v 0 H 828.00015 C 993.67817,600 1128.0002,465.67821 1128.0002,299.98799 1128.0002,134.31005 993.67817,0 828.00015,0 Z"/>
  <path d="m 746.76016,313.46405 c 0,-54.30582 11.44799,-104.4 34.374,-150.24598 28.39199,-56.81403 67.27798,-85.21802 116.61601,-85.21802 48.822,0 86.94,24.17401 114.35403,72.492 22.908,39.87605 34.374,86.23807 34.374,139.04393 0,54.84595 -11.4599,104.41204 -34.374,148.77008 -27.91203,55.8061 -66.78603,83.69389 -116.61603,83.69389 -47.34599,0 -84.93601,-23.90391 -112.85402,-71.74193 -23.922,-40.86599 -35.87399,-86.44787 -35.87399,-136.79397 z M 809.52615,288.81 c 0,71.74192 10.71003,127.57218 32.16598,167.43608 14.92803,27.88812 34.10404,41.84996 57.52804,41.84996 56.31,0 84.48,-58.3021 84.48,-174.91201 0,-51.31799 -4.4879,-94.68602 -13.44,-130.05597 -15.456,-58.31402 -41.616,-87.46799 -78.504,-87.46799 -54.83402,0 -82.23002,56.32201 -82.23002,168.94788 z m -430.77009,24.65405 c 0,-54.30582 11.44803,-104.4 34.374,-150.24598 28.39202,-56.81403 67.27805,-85.21802 116.61605,-85.21802 48.82199,0 86.94,24.17401 114.35401,72.492 22.90799,39.87605 34.37404,86.23807 34.37404,139.04393 0,54.84595 -11.46004,104.41204 -34.37404,148.77008 -27.91201,55.8061 -66.78599,83.69389 -116.61601,83.69389 -47.346,0 -84.93602,-23.90391 -112.85403,-71.74193 -23.92203,-40.86599 -35.87402,-86.44787 -35.87402,-136.79397 z M 441.52208,288.81 c 0,71.74192 10.71,127.57218 32.16602,167.43608 14.928,27.88812 34.104,41.84996 57.52797,41.84996 56.31006,0 84.48002,-58.3021 84.48002,-174.91201 0,-51.31799 -4.48797,-94.68602 -13.43996,-130.05597 -15.45602,-58.31402 -41.61603,-87.46799 -78.50405,-87.46799 -54.834,0 -82.23,56.32201 -82.23,168.94788 z M 261.47405,78.00005 v 355.80617 c 0,42.57595 17.88002,63.8339 53.74203,63.8339 h 9.35397 v 24.35983 H 135.26403 v -24.36587 h 11.87402 c 34.67396,0 51.99598,-21.27003 51.99598,-63.84598 V 200.40008 c 0,-43.06801 -14.964,-64.62001 -44.85,-64.62001 h -19.02 v -23.58004 h 6.85796 c 36.97203,0 70.44005,-11.41199 100.35004,-34.218 h 19.00202 v 0.0168 z"/>
</svg>
