<?xml version="1.0" encoding="UTF-8" standalone="no"?>
<svg xmlns="http://www.w3.org/2000/svg" version="1.1" width="3047.9888" height="600">
  <path style="fill:#cac5c0" d="M 2747.9889,0 H 299.98819 V 0 C 134.31038,0 0,134.31005 0,299.98799 0,465.67821 134.31038,600 299.98819,600 v 0 H 2747.9889 c 165.678,0 300,-134.32179 300,-300.01201 C 3047.9889,134.31005 2913.6669,0 2747.9889,0 Z"/>
  <path d="m 370.74615,54.01203 v 375.03602 c 0,44.87401 19.35038,67.29005 58.11657,67.29005 h 10.10378 v 25.67393 H 234.31215 V 496.3381 h 12.84602 c 37.47592,0 56.20231,-22.41604 56.20231,-67.29005 v -246.024 c 0,-45.37798 -16.17,-68.11199 -48.48014,-68.11199 H 234.31215 V 90.06604 h 7.41621 c 39.96018,0 76.14616,-12.03603 108.48012,-36.07199 h 20.53767 v 0.0168 z m 256.52421,248.19016 c 0,-57.25808 12.14989,-110.06415 36.4802,-158.37614 30.12614,-59.87998 71.39974,-89.82603 123.74968,-89.82603 51.79807,0 92.26249,25.47603 121.3503,76.40402 24.30582,42.03602 36.47987,90.89985 36.47987,146.55599 0,57.82202 -12.17405,110.06394 -36.47987,156.82203 -29.62794,58.81808 -70.87839,88.21789 -123.75001,88.21789 -50.23808,0 -90.1382,-25.19385 -119.76615,-75.62382 -25.374,-43.06206 -38.06402,-91.11009 -38.06402,-144.17394 z m 66.60634,-26.00405 c 0,75.62382 11.36989,134.46001 34.13383,176.48409 15.84592,29.39981 36.19806,44.12387 61.05609,44.12387 59.75374,0 89.63397,-61.46404 89.63397,-184.374 0,-54.09614 -4.74576,-99.8102 -14.25036,-137.10003 -16.4035,-61.452 -44.16548,-92.19002 -83.32184,-92.19002 -58.18199,0 -87.25806,59.37598 -87.25806,178.08008 v 14.97601 0 z m 301.27779,26.00405 c 0,-57.25808 12.14991,-110.06415 36.48021,-158.37614 30.1261,-59.87998 71.3997,-89.82603 123.7497,-89.82603 51.7981,0 92.2621,25.47603 121.3499,76.40402 24.3065,42.03602 36.4682,90.89985 36.4682,146.55599 0,57.82202 -12.1617,110.06394 -36.4682,156.82203 -29.6219,58.81808 -70.872,88.21789 -123.7496,88.21789 -50.2384,0 -90.1382,-25.19385 -119.7662,-75.62382 -25.368,-43.06206 -38.06401,-91.11009 -38.06401,-144.17394 z m 66.61201,-26.00405 c 0,75.62382 11.3699,134.46001 34.1339,176.48409 15.8462,29.39981 36.198,44.12387 61.0561,44.12387 59.754,0 89.6339,-61.46404 89.6339,-184.374 0,-54.09614 -4.7457,-99.8102 -14.2497,-137.10003 -16.4041,-61.452 -44.1661,-92.19002 -83.3221,-92.19002 -58.1824,0 -87.2578,59.37598 -87.2578,178.08008 v 14.97601 0 z m 299.3884,26.00405 c 0,-57.25808 12.1613,-110.06415 36.4916,-158.37614 30.1201,-59.87998 71.3883,-89.82603 123.75,-89.82603 51.7981,0 92.2498,25.47603 121.3382,76.40402 24.3062,42.03602 36.492,90.89985 36.492,146.55599 0,57.82202 -12.1858,110.06394 -36.492,156.82203 -29.6219,58.81808 -70.8723,88.21789 -123.75,88.21789 -50.2263,0 -90.1378,-25.19385 -119.7661,-75.62382 -25.3559,-43.06206 -38.0637,-91.11009 -38.0637,-144.17394 z m 66.6117,-26.00405 c 0,75.62382 11.3699,134.46001 34.1459,176.48409 15.8463,29.39981 36.1863,44.12387 61.0564,44.12387 59.7417,0 89.6276,-61.46404 89.6276,-184.374 0,-54.09614 -4.734,-99.8102 -14.25,-137.10003 -16.4038,-61.452 -44.1534,-92.19002 -83.3218,-92.19002 -58.17,0 -87.2581,59.37598 -87.2581,178.08008 z m 421.5002,26.00405 c 0,-57.25808 12.1618,-110.06415 36.4919,-158.37614 30.12,-59.87998 71.3879,-89.82603 123.75,-89.82603 51.7981,0 92.2501,25.47603 121.3381,76.40402 24.306,42.03602 36.492,90.89985 36.492,146.55599 0,57.82202 -12.186,110.06394 -36.492,156.82203 -29.628,58.81808 -70.8781,88.21789 -123.75,88.21789 -50.2259,0 -90.1379,-25.19385 -119.7661,-75.62382 -25.3621,-43.06206 -38.0639,-91.11009 -38.0639,-144.17394 z m 66.606,-26.00405 c 0,75.62382 11.3699,134.46001 34.1461,176.48409 15.8459,29.39981 36.1858,44.12387 61.0558,44.12387 59.7421,0 89.628,-61.46404 89.628,-184.374 0,-54.09614 -4.7339,-99.8102 -14.25,-137.10003 -16.4039,-61.452 -44.154,-92.19002 -83.3219,-92.19002 -58.1699,0 -87.258,59.37598 -87.258,178.08008 z m 301.29,26.00405 c 0,-57.25808 12.138,-110.06415 36.468,-158.37614 30.138,-59.87998 71.412,-89.82603 123.75,-89.82603 51.798,0 92.2741,25.47603 121.362,76.40402 24.3061,42.03602 36.4681,90.89985 36.4681,146.55599 0,57.82202 -12.162,110.06394 -36.4681,156.82203 -29.6279,58.81808 -70.878,88.21789 -123.75,88.21789 -50.25,0 -90.138,-25.19385 -119.766,-75.62382 -25.38,-43.06206 -38.064,-91.11009 -38.064,-144.17394 z m 66.612,-26.00405 c 0,75.62382 11.37,134.46001 34.128,176.48409 15.846,29.39981 36.21,44.12387 61.056,44.12387 59.766,0 89.646,-61.46404 89.646,-184.374 0,-54.09614 -4.7579,-99.8102 -14.25,-137.10003 -16.404,-61.452 -44.178,-92.19002 -83.322,-92.19002 -58.194,0 -87.258,59.37598 -87.258,178.08008 z m 299.3881,26.00405 c 0,-57.25808 12.15,-110.06415 36.48,-158.37614 30.126,-59.87998 71.4,-89.82603 123.75,-89.82603 51.798,0 92.262,25.47603 121.35,76.40402 24.306,42.03602 36.48,90.89985 36.48,146.55599 0,57.82202 -12.174,110.06394 -36.48,156.82203 -29.628,58.81808 -70.878,88.21789 -123.75,88.21789 -50.238,0 -90.1381,-25.19385 -119.766,-75.62382 -25.368,-43.06206 -38.064,-91.11009 -38.064,-144.17394 z m 66.612,-26.00405 c 0,75.62382 11.37,134.46001 34.134,176.48409 15.846,29.39981 36.198,44.12387 61.056,44.12387 59.754,0 89.634,-61.46404 89.634,-184.374 0,-54.09614 -4.746,-99.8102 -14.25,-137.10003 -16.404,-61.452 -44.166,-92.19002 -83.322,-92.19002 -58.182,0 -87.258,59.37598 -87.258,178.08008 l 0.01,14.97601 v 0 z m -930.0965,236.97602 v -15.71401 c 41.3221,-4.5 61.9801,-19.626 61.9801,-45.38401 0,-15.258 -5.826,-23.334 -17.52,-24.246 l -5.826,-0.444 c -16.7701,-1.182 -25.1581,-9.432 -25.1581,-24.70201 0,-8.67 2.628,-15.504 7.854,-20.436 5.25,-4.92 12.2101,-7.404 20.8921,-7.404 14.682,0 26.214,7.35 34.608,22.02 7.17,12.282 10.758,26.35801 10.758,42.22201 0,24.85801 -8.682,43.72201 -26.04,56.59201 -15.282,11.05201 -35.7901,16.90201 -61.5481,17.49601 z m -1214.84422,0 v -15.71401 c 41.33401,-4.5 61.98001,-19.626 61.98001,-45.38401 0,-15.258 -5.838,-23.334 -17.508,-24.246 l -5.838,-0.444 c -16.782,-1.182 -25.17001,-9.432 -25.17001,-24.70201 0,-8.67 2.628,-15.504 7.86601,-20.436 5.25,-4.92 12.21,-7.404 20.892,-7.404 14.67,0 26.20201,7.35 34.59601,22.02 7.182,12.282 10.77,26.35801 10.77,42.22201 0,24.85801 -8.682,43.72201 -26.05201,56.59201 -15.282,11.05201 -35.79,16.90201 -61.53601,17.49601 z"/>
</svg>
