<?xml version="1.0" encoding="UTF-8" standalone="no"?>
<svg xmlns="http://www.w3.org/2000/svg" version="1.1" width="600" height="600">
  <circle cx="300" cy="300" r="300" style="fill:#cac5c0;stroke-width:6"/>
  <path d="m 238.98663,109.932 v 305.04001 c 0,36.29397 15.09544,54.42 45.21587,54.42 h 7.67386 v 20.69397 H 129.39004 v -20.69397 h 10.72811 c 30.65418,0 46.00224,-18.12603 46.00224,-54.42 V 214.93202 c 0,-36.798 -13.03825,-55.17001 -39.10838,-55.17001 h -16.09786 v -20.69399 h 6.14439 c 31.67975,0 60.28178,-9.70203 85.82385,-29.13001 l 16.10424,-0.007 v 0 z m 194.69379,0 v 305.04001 c 0,36.29397 15.06625,54.42 45.22156,54.42 h 7.66816 v 20.69397 H 324.05431 v -20.69397 h 10.7281 c 30.68974,0 46.00191,-18.12603 46.00191,-54.42 V 214.93202 c 0,-36.798 -13.03792,-55.17001 -39.07785,-55.17001 h -16.09216 v -20.69399 h 6.11419 c 31.67942,0 60.28178,-9.70203 85.85975,-29.13001 l 16.09217,-0.007 v 0 z" />
</svg>
