<?xml version="1.0" encoding="UTF-8" standalone="no"?>
<svg xmlns="http://www.w3.org/2000/svg" version="1.1" width="600" height="600">
   <circle cx="300" cy="300" r="300" style="fill:#cac5c0;stroke-width:6"/>
  <path d="m 217.8481,116.83801 v 294.31801 c 0,34.734 14.56202,52.10398 43.65606,52.10398 h 6.92396 v 19.93201 H 112.05617 V 463.26 h 9.97796 c 29.62801,0 44.44201,-17.36998 44.44201,-52.10398 v -193.146 c 0,-35.27403 -12.54003,-52.896 -37.55402,-52.896 h -15.34198 v -19.92003 h 6.13795 c 30.12602,0 57.47404,-9.44401 81.99004,-28.34997 l 16.13997,-0.007 v 0 z m 258.28202,262.12197 v 30.65405 c 0,34.24198 11.97601,51.36596 36.01797,51.36596 h 9.94804 V 480.876 H 375.70812 v -19.89601 h 11.50801 c 24.01797,0 36.024,-16.878 36.024,-50.57999 V 378.95998 H 276.07212 V 348.306 L 431.66414,121.422 h 44.47202 v 231.46799 h 3.83395 c 14.82,0 25.79399,-11.71802 32.93399,-35.23803 h 18.39603 l -9.19799,61.31403 -45.97202,-0.007 v 0 z M 435.49211,348.306 V 155.17202 L 305.19612,348.306 Z"/>
</svg>
