<?xml version="1.0" encoding="UTF-8" standalone="no"?>
<svg xmlns="http://www.w3.org/2000/svg" version="1.1" width="600" height="600">
   <circle cx="300" cy="300" r="300" style="fill:#cac5c0;stroke-width:6"/>
  <path d="m 208.02014,108.77402 v 305.04001 c 0,36.26995 15.09601,54.42001 45.222,54.42001 h 7.66199 v 20.66997 h -162.468 v -20.66997 h 10.72204 c 30.65394,0 45.996,-18.15006 45.996,-54.42001 V 213.75002 c 0,-36.77401 -13.03205,-55.17004 -39.10805,-55.17004 H 99.95413 v -20.69396 h 6.13802 c 31.68599,0 60.28198,-9.702 85.82996,-29.112 z m 107.30996,7.638 h 138.72609 c 17.90398,0 28.62598,-2.01599 32.21395,-6.12003 h 19.93201 L 494.69414,162.42 h -169.374 l -16.09199,75.09601 c 23.98798,-9.70203 45.46801,-14.56802 64.37401,-14.56802 36.79804,0 67.83001,12.29401 93.12,36.81001 25.28999,24.50402 37.91999,55.15796 37.91999,91.96801 0,42.91196 -16.33794,77.38801 -49.01995,103.47598 -30.69001,24.00002 -67.74603,36.02401 -111.14998,36.02401 -25.54808,0 -50.58008,-3.84603 -75.09608,-11.50801 l 7.638,-19.14597 c 20.42399,5.60395 38.57995,8.41196 54.42,8.41196 31.68603,0 59.41204,-10.45197 83.16601,-31.40399 23.76603,-20.95198 35.61603,-47.03999 35.61603,-78.18596 0,-27.07205 -8.79005,-49.31403 -26.41199,-66.67802 -17.64599,-17.36998 -39.726,-26.06398 -66.30603,-26.06398 -25.03201,0 -48.27001,8.694 -69.75001,26.06398 l -13.00799,-2.29803 z" />
</svg>
