<?xml version="1.0" encoding="UTF-8" standalone="no"?>
<svg xmlns="http://www.w3.org/2000/svg" version="1.1" width="600" height="600">
   <circle cx="300" cy="300" r="300" style="fill:#cac5c0;stroke-width:6"/>
  <path d="m 205.85422,109.94402 v 305.02799 c 0,36.28199 15.09601,54.42 45.22197,54.42 h 7.67403 v 20.68202 H 96.2582 v -20.68202 h 10.73401 c 30.65398,0 46.00798,-18.13801 46.00798,-54.42 V 214.90803 c 0,-36.76203 -13.04399,-55.15806 -39.11999,-55.15806 H 97.78821 v -20.70594 h 6.13801 c 31.686,0 60.294,-9.70203 85.83,-29.10001 z m 120.34797,164.75397 c 28.104,-26.53202 56.44804,-39.85798 85.07999,-39.85798 30.65405,0 55.41599,12.29398 74.34604,36.80998 17.36999,22.47598 26.03997,49.82998 26.03997,82.00799 0,34.74601 -10.21797,65.15401 -30.65398,91.19398 -22.47602,29.13004 -50.57999,43.68603 -84.29405,43.68603 -39.85798,0 -72.03596,-17.36996 -96.58796,-52.10403 -21.45598,-30.65394 -32.18996,-66.93593 -32.18996,-108.84597 0,-44.94 12.25795,-86.22597 36.80995,-123.78599 24.50402,-37.548 57.48001,-64.24199 98.862,-80.08801 C 426.59421,115.00801 451.1462,110.67 477.1862,110.67 v 19.93198 c -55.15803,2.56803 -96.30598,24.55199 -123.378,65.92804 -13.82402,21.474 -23.02199,47.514 -27.60601,78.16797 z m -3.83998,37.58401 c -0.49202,7.638 -0.77403,15.318 -0.77403,22.98002 0,29.62797 5.11201,56.97598 15.35403,82.03198 13.27799,32.67 32.67001,49.02001 58.24201,49.02001 21.96001,0 38.58002,-11.22599 49.80598,-33.71402 8.17803,-17.36996 12.25802,-38.57999 12.25802,-63.62398 0,-26.04 -3.79801,-48.52799 -11.47204,-67.41601 -11.262,-25.572 -28.374,-38.33402 -51.36599,-38.33402 -28.104,0 -52.11597,16.34999 -72.04798,49.05602 z" />
</svg>
