<?xml version="1.0" encoding="UTF-8" standalone="no"?>
<svg xmlns="http://www.w3.org/2000/svg" version="1.1" width="600" height="600">
   <circle cx="300" cy="300" r="300" style="fill:#cac5c0;stroke-width:6"/>
  <path d="m 202.26615,114.92397 v 295.84204 c 0,35.274 14.58007,52.88403 43.71001,52.88403 h 6.88803 v 19.93197 H 95.73616 v -19.93197 h 10.73401 c 29.62804,0 44.46002,-17.616 44.46002,-52.88403 V 216.85797 c 0,-35.742 -12.77403,-53.64597 -38.322,-53.64597 h -15.354 v -19.92004 h 6.13801 c 30.65398,0 58.26596,-9.45598 82.78199,-28.36195 l 16.09196,-0.007 v 0 z m 196.24201,370.95 h -53.66999 v -6.11996 c 0,-34.24198 10.73398,-77.412 32.17798,-129.51599 32.71801,-77.69403 62.88,-137.47202 90.44401,-179.35803 l 3.09601,-5.37003 h -125.718 c -18.39603,0 -32.32201,3.83401 -41.76602,11.47198 -9.44401,7.67406 -16.75796,20.46003 -21.86996,38.33404 H 260.53221 L 283.5242,114.14997 h 13.80594 c 7.63807,3.58801 21.46803,5.37 41.38799,5.37 h 165.54003 v 29.13001 c -6.12,8.694 -13.78199,22.47598 -22.992,41.37598 -17.90404,34.77 -34.24198,75.12601 -49.05598,121.09201 -21.984,68.49003 -33.21003,126.75606 -33.70202,174.756 z" />
</svg>
