<?xml version="1.0" encoding="UTF-8" standalone="no"?>
<svg xmlns="http://www.w3.org/2000/svg" version="1.1" width="600" height="600">
   <circle cx="300" cy="300" r="300" style="fill:#cac5c0;stroke-width:6"/>
  <path d="m 222.97213,111.45597 v 301.23005 c 0,35.77196 15.06001,53.634 45.222,53.634 h 7.66202 v 20.70597 H 114.91213 v -20.70597 h 10.722 c 30.16199,0 45.222,-17.86801 45.222,-53.634 V 214.93199 c 0,-36.27002 -12.786,-54.42004 -38.33401,-54.42004 h -16.09199 v -20.67598 h 6.13801 c 31.15801,0 59.50799,-9.45001 85.07999,-28.37399 l 15.324,-0.007 v 0 z m 244.50001,214.626 c -28.104,26.57405 -56.19002,39.85801 -84.29401,39.85801 -30.65398,0 -55.45202,-12.53398 -74.35799,-37.578 -16.87203,-21.954 -25.29603,-48.78004 -25.29603,-80.46003 0,-34.24799 9.94804,-64.90197 29.87401,-91.97398 22.47602,-29.12401 50.34002,-43.68599 83.55001,-43.68599 40.36799,0 72.29399,17.36998 95.80199,52.116 21.96001,31.18199 32.96399,67.70399 32.96399,109.59001 0,60.31798 -19.79996,111.024 -59.39395,152.15401 -39.61201,41.12997 -89.28605,61.96201 -149.07601,62.46001 v -19.92604 c 18.39596,-1.02595 32.96398,-3.08998 43.68599,-6.13799 60.82798,-18.408 96.31199,-63.87598 106.542,-136.41601 z m 3.84599,-37.58401 c 0.49202,-8.13599 0.77399,-15.80998 0.77399,-22.97998 0,-29.62804 -5.112,-56.69999 -15.34198,-81.24 -13.794,-32.18399 -33.21,-48.28199 -58.26603,-48.28199 -21.948,0 -38.07599,10.97995 -48.26997,32.96399 -8.70598,17.87395 -13.04402,38.832 -13.04402,62.84397 0,26.04 4.092,48.55802 12.25801,67.42205 10.73402,25.04398 27.61198,37.58394 50.592,37.58394 27.6,0 51.36002,-16.09199 71.298,-48.31198 z" />
</svg>
