<?xml version="1.0" encoding="UTF-8" standalone="no"?>
<svg xmlns="http://www.w3.org/2000/svg" version="1.1" width="600" height="600">
  <circle cx="300" cy="300" r="300" style="fill:#cac5c0;stroke-width:6"/>
  <path d="M 464.65227,420.62999 429.27649,540.01798 H 135.3303 v -25.52399 c 14.28021,-15.91201 45.57013,-48.00602 93.87614,-96.318 29.09418,-29.11199 57.8938,-59.83199 86.44181,-92.22599 14.26814,-15.906 25.26027,-29.65203 32.92239,-41.17198 17.01575,-24.68404 25.52966,-49.92002 25.52966,-75.744 0,-25.22404 -7.80604,-47.47203 -23.44798,-66.67201 -15.64194,-19.224 -35.81996,-28.848 -60.53977,-28.848 -53.22588,0 -94.93828,35.988 -125.12413,107.87998 l -26.37038,-9.88198 C 174.30045,110.538 230.54435,60.017999 307.40474,60.017999 c 37.87749,0 70.12153,12.893992 96.74353,38.688016 26.63407,25.800025 39.93608,57.623975 39.93608,95.520015 0,48.31197 -27.70199,95.50796 -83.1481,141.60598 L 303.31251,383.568 c -36.78616,30.76201 -67.27226,59.57404 -91.38652,86.47201 -1.67977,1.638 -4.95543,5.496 -9.88168,11.52599 h 153.12597 c 23.59191,0 41.44201,-4.65598 53.50769,-14.00998 10.41074,-8.23201 20.60429,-23.88002 30.4806,-46.92603 z" />
</svg>
