<?xml version="1.0" encoding="UTF-8" standalone="no"?>
<svg xmlns="http://www.w3.org/2000/svg" version="1.1" width="600" height="600">
   <circle cx="300" cy="300" r="300" style="fill:#cac5c0;stroke-width:6"/>
  <path d="M 319.46418,379.60795 292.6382,469.27793 H 71.89207 v -18.40797 c 10.73415,-12.24601 34.49984,-36.51603 71.29807,-72.78601 21.45588,-21.95998 42.9121,-44.97596 64.37435,-68.98796 11.22563,-12.25201 19.42788,-22.73401 24.53965,-31.43998 13.2543,-18.39604 19.89621,-37.54805 19.89621,-57.46801 0,-18.396 -5.98805,-34.87803 -17.98798,-49.42804 -12.012,-14.56795 -27.23392,-21.83393 -45.59999,-21.83393 -39.85785,0 -71.04008,27.07195 -93.52791,81.24597 l -20.68225,-7.67403 c 27.07221,-76.13397 69.49215,-114.19798 127.21822,-114.19798 28.62618,0 53.01586,9.68998 73.19355,29.12397 20.20218,19.42804 30.28246,43.44001 30.28246,72.03606 0,36.30598 -21.2103,71.78996 -63.62454,106.53594 l -42.91176,36.024 c -27.5996,23.51998 -50.33401,45.222 -68.20189,65.14197 -1.53584,1.03202 -4.09223,4.09203 -7.67386,9.21004 h 114.98379 c 17.87392,0 31.40399,-3.85199 40.60799,-11.50804 7.67387,-6.126 15.34202,-17.87999 22.98032,-35.25001 h 18.40768 v -0.007 z m -3.05995,-80.48399 c 0,-44.44797 9.19796,-85.58398 27.59993,-123.378 24.01227,-47.00396 56.44787,-70.52397 97.33834,-70.52397 39.33013,0 70.7576,20.17799 94.27771,60.54 18.36608,32.71798 27.56404,70.51196 27.56404,113.42402 0,44.96999 -9.19796,85.86593 -27.56404,122.66393 -24.04816,45.95399 -56.23785,68.94602 -96.58819,68.94602 -38.82557,0 -70.01988,-19.64396 -93.50376,-59.016 -19.42821,-33.20402 -29.12403,-70.752 -29.12403,-112.656 z m 52.11609,-20.68799 c 0,38.33398 4.08016,72.57596 12.25792,102.69595 12.24617,47.04003 32.70634,70.52404 61.31406,70.52404 46.48802,0 69.76189,-48.28199 69.76189,-144.87598 0,-119.56798 -25.30187,-179.346 -75.87608,-179.346 -44.976,0 -67.45175,46.48802 -67.45175,139.48801 v 11.51398 0 z" />
</svg>
