<?xml version="1.0" encoding="UTF-8" standalone="no"?>
<svg xmlns="http://www.w3.org/2000/svg" version="1.1" width="600" height="600">
  <path style="fill:#a3c095" d="M 512.094,87.816878 C 566.406,142.12342 600,217.12417 600,299.979 600,465.67666 465.678,600 300,600 217.158,600 142.17,566.42366 87.876,512.12312"/>
  <path style="fill:#cac5c0" d="M 87.876,512.12312 C 33.582,457.84058 0,382.82783 0,299.985 0,134.30534 134.322,0 300,0 382.824,0 457.806,33.558336 512.094,87.822878"/>
  <path d="m 261.87625,249.54245 -17.19594,58.0626 H 101.75429 v -12.40814 c 6.94204,-7.74009 22.15201,-23.34623 45.642,-46.83048 14.14203,-14.15414 28.15201,-29.10628 42.03001,-44.85644 6.942,-7.72808 12.28797,-14.40613 16.00201,-20.01618 8.27398,-11.99414 12.41996,-24.27627 12.41996,-36.82839 0,-12.27012 -3.79798,-23.08821 -11.40596,-32.41231 -7.602,-9.3661 -17.41806,-14.03414 -29.43,-14.03414 -25.87803,0 -46.16401,17.49617 -60.84002,52.45852 l -12.822,-4.81804 c 17.34603,-49.098507 44.68798,-73.644742 82.06798,-73.644742 18.41398,0 34.09202,6.264052 47.03405,18.804167 12.95394,12.552155 19.4159,28.020305 19.4159,46.446485 0,23.49022 -13.46991,46.42246 -40.42797,68.8567 l -28.00795,23.20821 c -17.88602,14.95217 -32.71801,28.96232 -44.43603,42.03043 -0.81603,0.82197 -2.41199,2.67604 -4.81195,5.61605 h 74.45998 c 11.47201,0 20.15403,-2.26202 26.01,-6.79808 5.07001,-4.02001 10.01997,-11.62208 14.81991,-22.83622 z"/>
  <path d="m 537.1083,405.70601 c 0,4.54804 -1.758,8.6221 -5.274,12.25814 -3.516,3.62404 -7.542,5.43003 -12.09,5.43003 -7.248,0 -12.588,-3.39603 -15.978,-10.20609 l -16.002,-0.67198 c -3.408,0 -10.104,1.47597 -20.076,4.42202 -10.662,2.94001 -16.788,5.32804 -18.378,7.13407 -2.49,2.73003 -4.53,9.0841 -6.126,19.06817 -1.368,8.16613 -2.034,14.17816 -2.034,18.03623 0,6.12006 0.96,10.60805 2.886,13.44013 1.926,2.83802 5.904,5.21401 11.904,7.13404 6,1.90802 9.696,3.01204 11.064,3.23406 0.906,0 2.376,-0.10802 4.422,-0.34169 h 4.086 c 2.946,0 6.012,0.45599 9.198,1.36198 4.53,1.36204 6.468,3.16203 5.79,5.44211 -3.186,-0.44406 -8.736,0.22779 -16.674,2.03996 l 9.516,4.77006 c 0,2.72402 -3.852,4.07406 -11.568,4.07406 -2.0521,0 -4.8301,-0.43201 -8.334,-1.35004 -3.522,-0.924 -5.85,-1.37402 -6.978,-1.37402 h -4.422 c -0.2342,2.274 -0.906,5.6581 -2.04,10.2061 -3.87,-0.2221 -8.4,-2.496 -13.62,-6.79805 -5.22,-4.32007 -8.508,-6.47403 -9.858,-6.47403 -1.368,0 -3.3,2.15396 -5.79,6.47403 -2.502,4.30205 -3.75,7.24206 -3.75,8.85009 -2.946,-1.60803 -5.43,-4.54804 -7.494,-8.85009 -0.906,-2.97004 -1.926,-5.91605 -3.054,-8.87408 -2.268,0.23384 -6.462,5.01601 -12.588,14.31015 h -1.704 c -0.462,-0.67799 -2.166,-5.43607 -5.118,-14.31015 -7.032,-2.25004 -13.602,-3.37805 -19.728,-3.37805 -2.946,0 -7.494,0.67201 -13.626,2.04603 l -9.516,-0.67798 c 1.35,-1.36805 5.328,-3.97207 11.904,-7.83011 7.71,-4.54803 13.614,-6.82207 17.694,-6.82207 0.672,0 1.578,0.12614 2.724,0.35394 1.128,0.23383 2.04,0.34817 2.724,0.34817 1.572,0 4.14,-0.852 7.656,-2.56202 3.516,-1.69803 5.556,-3.23406 6.108,-4.59607 0.588,-1.37403 0.87,-4.87802 0.87,-10.5541 0,-12.91814 -3.408,-22.57823 -10.2181,-28.91431 -5.9039,-5.67001 -15.6479,-9.75011 -29.2559,-12.25814 -3.63,12.92414 -13.842,19.40422 -30.624,19.40422 -5.4541,0 -10.8901,-3.29402 -16.3381,-9.87611 -5.4299,-6.58807 -8.1659,-12.59413 -8.1659,-18.03617 0,-8.40007 3.5159,-15.31218 10.548,-20.76023 -5.6641,-5.88602 -8.502,-11.89813 -8.502,-18.03617 0,-5.66407 1.752,-10.65612 5.274,-14.97615 3.5159,-4.29602 8.118,-6.79805 13.776,-7.48805 -0.444,-7.2481 1.926,-12.25213 7.1459,-14.97015 -2.4959,-2.48405 -3.7379,-6.9001 -3.7379,-13.26614 0,-7.47607 2.4899,-13.72214 7.488,-18.71419 4.98,-4.98004 11.232,-7.48808 18.702,-7.48808 8.178,0 14.874,2.85006 20.082,8.50809 6.5879,-22.45222 20.754,-33.67833 42.534,-33.67833 11.34,0 21.324,4.53606 29.946,13.62011 3.18,3.39004 4.758,5.20804 4.758,5.43007 -2.718,0 -1.35,-0.51602 4.086,-1.52402 5.448,-1.02599 9.408,-1.542 11.91,-1.542 8.844,0 16.674,3.30002 23.49,9.87611 5.898,5.90407 9.984,13.37414 12.252,22.45219 1.584,0.23417 4.074,0.90602 7.476,2.04604 4.992,2.50203 7.494,6.81005 7.494,12.93012 0,1.12804 -0.912,3.29404 -2.724,6.47406 14.514,8.16607 21.774,19.50621 21.774,34.02033 0,4.09208 -1.59,9.76215 -4.758,17.01619 5.916,3.41402 8.862,8.40611 8.862,14.98817 z m -140.196,14.97016 v -4.41602 c 0,-5.21408 -2.55,-9.98414 -7.65,-14.29217 -5.106,-4.32 -10.26,-6.46209 -15.486,-6.46209 -6.36,0 -12.252,1.47604 -17.694,4.40408 12.018,-0.66004 25.632,6.24607 40.83,20.7662 z m -6.126,-42.18043 c -3.402,-3.87605 -6.348,-7.83608 -8.844,-11.9101 -9.534,2.48401 -14.292,5.33401 -14.292,8.49605 2.718,-0.22209 6.696,0.28214 11.904,1.53606 5.208,1.25399 8.964,1.87799 11.232,1.87799 z m 20.7719,-10.56611 v -14.97015 c -5.4599,-0.89397 -8.7539,-1.356 -9.8759,-1.356 v 5.10605 z m 44.2321,-9.51606 c -2.73,-1.13405 -7.83,-3.40805 -15.324,-6.81009 v 29.26228 c 10.668,-6.13207 15.7679,-13.60811 15.324,-22.45219 z m 18.696,40.15237 -7.476,-9.17407 c -4.524,3.17401 -9.126,6.39603 -13.788,9.69011 -4.65,3.28201 -8.676,6.97204 -12.066,11.06411 10.194,-5.4661 21.33,-9.30608 33.33,-11.58015 z"/>
</svg>
