<?xml version="1.0" encoding="UTF-8" standalone="no"?>
<svg xmlns="http://www.w3.org/2000/svg" version="1.1" width="600" height="600">
  <path style="fill:#c1d7e9" d="M 512.094,87.816871 C 566.40601,142.12342 600,217.12417 600,299.97898 600,465.67666 465.68398,600 299.99399,600 217.15799,600 142.164,566.42365 87.87001,512.12311"/>
  <path style="fill:#cac5c0" d="M 87.87598,512.12311 C 33.58198,457.84058 0,382.82782 0,299.98499 0,134.30532 134.31599,0 299.99399,0 382.81799,0 457.80601,33.558332 512.094,87.822877"/>
  <path d="m 460.33177,502.04899 c -16.15155,16.43419 -36.04742,24.64826 -59.68194,24.64826 -26.53175,0 -47.57398,-9.08409 -63.14379,-27.2403 -14.71232,-17.30413 -22.05606,-39.34837 -22.05606,-66.16864 0,-28.82434 12.54005,-61.68663 37.62587,-98.60504 20.46016,-30.2823 44.53819,-56.80254 72.22233,-79.58478 -4.03822,18.4562 -6.06018,31.57231 -6.06018,39.36642 0,17.88017 5.62204,35.31635 16.86612,52.3265 13.84207,20.1902 24.3662,35.18437 31.57206,44.97648 11.24375,17.01015 16.86613,33.60033 16.86613,49.73449 0,23.94025 -8.06403,44.12447 -24.21054,60.54661 z M 459.9,409.72005 c -4.32607,-9.65408 -9.37175,-16.08014 -15.13771,-19.24822 0.86957,1.72807 1.28994,4.18806 1.28994,7.3561 0,6.06008 -1.72204,14.71817 -5.1782,25.94425 l -5.62808,17.31021 c 0,10.08012 5.03394,15.13212 15.13234,15.13212 10.66168,0 16.00796,-7.06204 16.00796,-21.1922 0,-7.20607 -2.16052,-15.64817 -6.48625,-25.30226 z"/>
  <path d="M 261.87587,249.55446 244.6803,307.60505 H 101.75404 v -12.40814 c 6.94218,-7.73409 22.15201,-23.33425 45.64193,-46.83048 14.142,-14.14213 28.15214,-29.10628 42.03011,-44.85644 6.94184,-7.72208 12.28811,-14.40613 16.00192,-20.01021 8.27404,-12.00011 12.41995,-24.27023 12.41995,-36.83437 0,-12.27011 -3.79768,-23.07623 -11.40612,-32.4123 -7.60173,-9.35409 -17.41766,-14.02814 -29.43,-14.02814 -25.87756,0 -46.16394,17.49017 -60.84002,52.45251 l -12.82187,-4.80606 c 17.3462,-49.110481 44.68815,-73.656716 82.06811,-73.656716 18.41405,0 34.09189,6.264052 47.03419,18.810173 12.95371,12.546153 19.41614,28.020303 19.41614,46.440473 0,23.49022 -13.47036,46.43447 -40.42851,68.86868 l -28.00788,23.19624 c -17.886,14.95216 -32.71808,28.96232 -44.43587,42.04243 -0.81623,0.80997 -2.41213,2.67602 -4.81184,5.61606 h 74.46 c 11.47188,0 20.15353,-2.26205 26.00974,-6.81009 5.06984,-4.00803 10.0199,-11.62209 14.82034,-22.81821 l 12.40151,-0.007 v 0 z"/>
</svg>
