<?xml version="1.0" encoding="UTF-8" standalone="no"?>
<svg xmlns="http://www.w3.org/2000/svg" version="1.1" width="600" height="600">
  <path style="fill:#f8f6d8" d="m 512.09398,87.81687 c 54.312,54.30654 87.906,129.3073 87.906,212.16211 C 599.99998,465.67666 465.68398,600 299.99403,600 217.15803,600 142.164,566.42365 87.87001,512.12311"/>
  <path style="fill:#cac5c0" d="M 87.87601,512.12311 C 33.58202,457.84058 0,382.82782 0,299.98498 0,134.30532 134.31602,0 299.99403,0 382.81798,0 457.80598,33.55833 512.09398,87.82287"/>
  <path d="m 261.87617,249.54244 -17.19624,58.0626 H 101.75435 v -12.40813 c 6.94183,-7.7401 22.15167,-23.34623 45.64193,-46.83048 14.14165,-14.15415 28.15214,-29.10628 42.02977,-44.85644 6.94217,-7.72809 12.28811,-14.40613 16.00225,-20.01619 8.27404,-11.99414 12.41995,-24.27626 12.41995,-36.82839 0,-12.27012 -3.79835,-23.08821 -11.40612,-32.41231 -7.60173,-9.3661 -17.41833,-14.03414 -29.43,-14.03414 -25.87789,0 -46.16394,17.49617 -60.84002,52.45852 l -12.82187,-4.81804 c 17.34553,-49.09851 44.68782,-73.64474 82.06812,-73.64474 18.41337,0 34.09188,6.26405 47.03351,18.80417 12.95405,12.55216 19.41614,28.0203 19.41614,46.44648 0,23.49022 -13.47002,46.42246 -40.42784,68.8567 l -28.00822,23.20821 c -17.88599,14.95217 -32.71774,28.96232 -44.43619,42.03043 -0.8159,0.82198 -2.4118,2.67605 -4.81185,5.61606 h 74.46 c 11.47221,0 20.15421,-2.26202 26.01008,-6.79808 5.07017,-4.02001 10.02023,-11.62209 14.81967,-22.83623 z"/>
  <path d="m 528.00018,438.66432 c -14.616,-13.58411 -24.3242,-20.94615 -29.0821,-22.09221 -3.4618,-0.82801 -6.8096,1.18803 -10.0323,6.03609 -3.222,4.84803 -7.7517,6.55207 -13.6139,5.14805 -2.3756,-0.57002 -7.0496,-2.61005 -13.9978,-6.10207 -5.6281,5.31006 -8.6457,8.8261 -9.0601,10.54809 -0.5699,2.38803 0.5281,5.62807 3.3002,9.73212 2.76,4.10401 5.3637,6.42602 7.8,7.02007 1.5479,0.37202 3.7319,0.54601 6.546,0.53396 2.8019,-0.007 4.6619,0.096 5.5559,0.30563 2.6638,0.62397 2.8141,5.82607 0.468,15.58819 -2.2202,9.31205 -7.8121,23.11223 -16.7577,41.35241 -0.3486,-23.45423 -3.6545,-35.93436 -9.9364,-37.43439 -0.8703,-0.21002 -2.8137,0.0235 -5.8321,0.66598 -3.0237,0.64202 -5.1839,0.82201 -6.4798,0.51007 -6.282,-1.50607 -10.548,-8.5981 -12.7796,-21.27624 -10.3386,-0.87005 -16.5424,3.03599 -18.6184,11.69412 -1.0376,4.35603 0.1443,8.29808 3.534,11.85609 3.384,3.55207 4.944,5.87408 4.6981,6.96005 -1.3979,5.86811 -12.126,12.79817 -32.1303,20.83826 -10.6617,4.33205 -18.0356,7.36804 -22.1278,9.1321 3.9479,-3.16807 8.214,-7.53612 12.7561,-13.09216 5.1775,-6.34208 8.2321,-11.43609 9.1738,-15.35415 0.516,-2.15403 -1.2541,-5.80205 -5.298,-10.88415 -4.0557,-5.09404 -5.5559,-9.80408 -4.5179,-14.13009 0.8759,-3.68405 3.2582,-7.91411 7.1582,-12.72013 -2.0401,-3.91806 -5.0041,-6.36011 -8.9158,-7.29008 -8.6643,-2.08207 -13.6687,-0.29992 -15.0187,5.34599 0.9303,-3.90601 0.2349,-0.97798 -2.0934,8.77213 -1.5006,7.20009 -7.7762,9.4801 -18.8284,6.84609 -8.4541,-2.02799 -22.17611,-7.37408 -41.18397,-16.04415 23.89187,-0.23417 36.70837,-4.04403 38.46627,-11.40614 -0.1912,0.876 0,-1.84803 0.5757,-8.11812 0.7384,-6.92402 6.9603,-11.86209 18.6542,-14.79013 0.4318,-10.42812 -3.5578,-16.66215 -12.0183,-18.67819 -1.2957,-0.31804 -4.2359,1.38603 -8.778,5.11806 -4.5659,3.71405 -8.3639,5.22005 -11.3877,4.48805 -5.2023,-1.23 -10.57206,-8.47807 -16.10419,-21.72022 -2.55572,-6.57603 -6.52181,-16.33817 -11.89794,-29.31029 4.36196,3.79204 8.71789,7.59607 13.08622,11.37607 5.77738,4.59608 10.62011,7.35013 14.51371,8.29811 3.0358,0.71402 6.648,-1.22999 10.8482,-5.84405 4.1879,-4.61403 8.6699,-6.34806 13.4402,-5.19603 0.6656,0.156 4.68,2.48405 12.0717,7.00803 5.622,-5.29802 8.7957,-9.45608 9.522,-12.49211 0.6123,-2.61002 -0.2382,-5.96406 -2.5802,-10.07408 -2.3336,-4.12207 -4.8118,-6.47407 -7.4158,-7.11008 -1.08,-0.25799 -2.8319,-0.3419 -5.2621,-0.23384 -2.4299,0.11977 -4.1882,0.0352 -5.2738,-0.22209 -3.8943,-0.92997 -4.6861,-6.27006 -2.3518,-16.03217 0.6116,-2.60402 6.6658,-16.85415 18.138,-42.7324 -0.9964,3.18005 -1.0383,9.6001 -0.1241,19.21218 1.0795,11.71814 4.122,18.16218 9.1077,19.36819 0.8642,0.19828 2.7479,-0.0302 5.6703,-0.70801 2.904,-0.67799 5.1178,-0.83996 6.6238,-0.46801 4.9799,1.18206 8.424,4.99209 10.3319,11.40013 l 2.7782,9.92409 c 4.5421,1.10402 8.7236,0.3842 12.5343,-2.13601 3.8158,-2.52602 6.2756,-6.06605 7.3619,-10.61412 1.1339,-4.77003 0,-8.87408 -3.4082,-12.3301 -3.4203,-3.45602 -4.9742,-5.83205 -4.6498,-7.1281 1.086,-4.55401 10.0739,-10.53008 26.9699,-17.94015 13.5535,-5.91005 22.254,-9.21611 26.0939,-9.90607 -12.324,10.35005 -19.194,18.42013 -20.5859,24.2822 -0.7317,3.04203 0.3321,6.72605 3.1861,11.08809 3.5702,5.20207 5.4657,8.75415 5.6995,10.62617 0.9662,5.52 -0.876,12.28209 -5.5496,20.34019 4.8659,5.52004 8.8142,8.62807 11.8617,9.37208 6.2642,1.49999 10.1883,-1.00801 11.7483,-7.50009 0.1577,-0.65404 0.3758,-2.77801 0.672,-6.37805 0.2751,-3.60002 0.5938,-5.59204 0.9058,-5.97007 1.6023,-2.83201 7.9198,-2.92203 18.9723,-0.26973 6.9358,1.656 20.8742,7.0501 41.8318,16.18817 -5.0822,0.16204 -12.6963,0.39007 -22.8538,0.726 -9.2942,0.51598 -14.3282,2.40601 -15.1203,5.65205 -0.3519,1.51802 -0.4438,4.24804 -0.2382,8.18408 0.2047,3.93604 0.1074,6.79208 -0.3153,8.52608 -0.7196,3.03606 -3.3481,5.37608 -7.8658,7.05006 l -12.9362,5.15406 c 1.4761,5.38803 2.5201,8.6281 3.1861,9.69009 1.5539,3.12603 4.1522,5.12406 7.8419,6.0121 2.604,0.62397 5.5321,-1.08004 8.7897,-5.12407 3.2522,-4.03205 7.2726,-5.47807 12.0361,-4.33205 5.8562,1.39204 11.1663,8.38806 15.9422,20.98823 2.6702,7.06204 6.858,17.80817 12.5763,32.22628 z m -67.65,-36.11434 c 3.3119,-13.87811 1.1037,-27.12026 -6.6479,-39.73841 -7.7521,-12.61808 -18.5644,-20.59819 -32.4242,-23.91626 -14.088,-3.36601 -27.444,-1.23 -40.0323,6.42009 -12.5877,7.62606 -20.6816,18.4622 -24.2696,32.49635 -3.5401,13.81812 -1.2601,27.02428 6.8459,39.62438 8.0938,12.58815 19.0799,20.55017 32.9519,23.86825 14.7304,3.52204 28.1883,1.64402 40.35,-5.64005 12.168,-7.29007 19.9083,-18.3362 23.2262,-33.11435 z m -4.8783,-1.17602 c -3.1616,13.21814 -10.2178,23.10626 -21.1858,29.63431 -10.9559,6.54006 -23.0521,8.23809 -36.2638,5.07602 -12.786,-3.05998 -22.668,-10.12209 -29.6464,-21.18619 -6.978,-11.06411 -8.9279,-22.98022 -5.874,-35.76635 3.018,-12.57614 10.1944,-22.25421 21.5582,-29.0523 11.376,-6.78006 23.334,-8.6701 35.8918,-5.65806 12.5642,3.00003 22.3744,10.15809 29.3941,21.45623 7.0381,11.32213 9.0779,23.14823 6.1259,35.49634 z"/>
</svg>
