<?xml version="1.0" encoding="UTF-8" standalone="no"?>
<svg xmlns="http://www.w3.org/2000/svg" version="1.1" width="600" height="600">
  <circle cx="300" cy="300" r="300" style="fill:#cac5c0;stroke-width:6"/>
  <path d="M 320.96416,540.01205 H 251.10619 V 532.584 c 0,-44.37598 13.96801,-99.95401 41.87998,-166.84798 42.21,-100.79402 81.12004,-178.03801 116.71801,-231.744 L 414.6362,126.6 H 251.10015 c -23.57996,0 -41.51997,4.914 -53.84994,14.778 -12.354,9.87001 -21.49205,26.32201 -27.51603,49.33202 H 142.61419 L 172.17023,60.018 h 17.28595 c 10.40403,5.48399 28.45203,8.22603 54.24598,8.22603 h 213.65403 v 36.99 c -7.64997,10.97398 -17.508,28.49997 -29.55604,52.60799 -23.02796,44.90997 -44.11198,97.24799 -63.31794,156.978 -28.45804,88.21199 -42.97802,163.25403 -43.51805,225.19203 z" />
</svg>
