<?xml version="1.0" encoding="UTF-8" standalone="no"?>
<svg xmlns="http://www.w3.org/2000/svg" version="1.1" width="600" height="600">
  <circle cx="300" cy="300" r="300" style="fill:#cac5c0;stroke-width:6"/>
  <path d="m 245.79012,296.79001 -10.47599,-7.26597 c -30.71398,-21.01204 -50.95199,-37.98002 -60.64201,-50.93403 -12.396,-16.146 -18.57598,-34.98001 -18.57598,-56.55599 0,-36.62999 15.34202,-66.52202 46.06802,-89.694 28.54797,-21.53998 61.68597,-32.32798 99.40799,-32.32798 35.53199,0 67.07997,9.43801 94.53601,28.27798 31.21799,21.01801 46.87799,48.76204 46.87799,83.25603 0,42.02397 -29.388,75.95999 -88.092,101.80199 66.78601,32.32794 100.19398,77.30397 100.19398,134.952 0,41.48397 -15.87598,74.33396 -47.69399,98.60398 -28.51798,22.09199 -64.37401,33.10804 -107.45401,33.10804 -40.40399,0 -75.15,-10.21803 -104.26201,-30.71406 -33.408,-23.13598 -50.088,-53.85599 -50.088,-92.09398 0,-38.238 17.77803,-69.77997 53.33401,-94.56604 9.69601,-6.44397 25.33798,-15.06001 46.86599,-25.84797 z m 27.43203,11.47195 c -48.47999,22.062 -72.666,56.79607 -72.666,104.16607 0,30.67797 9.80998,55.30796 29.49598,73.88398 19.66198,18.58199 44.84999,27.85799 75.56402,27.85799 27.444,0 50.76601,-7.39195 69.87598,-22.16999 19.11598,-14.78398 28.68603,-35.34599 28.68603,-61.68001 0,-39.756 -26.20204,-72.00597 -78.58807,-96.73202 z m 54.186,-47.83794 c 42.52796,-18.84598 63.84599,-47.124 63.84599,-84.83398 0,-25.87803 -9.03599,-46.59601 -27.06,-62.25003 -18.07202,-15.61799 -40.29002,-23.43597 -66.67802,-23.43597 -22.104,0 -41.21401,5.94598 -57.378,17.78401 -17.78998,12.92398 -26.65799,30.17994 -26.65799,51.71999 0,26.40001 12.37801,47.68801 37.16998,63.85797 4.83,3.22199 26.37602,13.71603 64.65002,31.50004 z" />
</svg>
