<?xml version="1.0" encoding="UTF-8" standalone="no"?>
<svg xmlns="http://www.w3.org/2000/svg" version="1.1" width="600" height="600">
  <path style="fill:#a3c095" d="M 512.094,87.81687 C 566.41201,142.12342 600,217.12417 600,299.97902 600,465.67666 465.67801,600 300,600 217.15799,600 142.17,566.42369 87.87601,512.12314"/>
  <path style="fill:#bab1ab" d="M 87.87601,512.12314 C 33.57601,457.84058 0,382.82785 0,299.98502 0,134.30536 134.32199,0 300,0 382.81201,0 457.80601,33.56434 512.094,87.82288"/>
  <path d="m 319.54201,168.66168 c 0,16.20615 -5.89197,27.25828 -17.68199,33.15034 -3.44397,1.72203 -14.24401,4.06806 -32.42402,6.99609 -11.77801,1.97397 -17.66998,6.52805 -17.66998,13.62609 v 29.83831 c 0,1.25405 0.37205,5.05204 1.10401,11.43613 l 1.11002,11.79013 c 0,3.67802 -0.86404,9.70209 -2.58605,18.04815 -4.65598,0.97801 -10.06801,2.08804 -16.20002,3.33004 -1.96798,-7.37407 -2.94598,-12.4141 -2.94598,-15.12014 0,-1.21802 0.29992,-3.07203 0.91201,-5.52605 0.61202,-2.44802 0.91799,-4.29605 0.91799,-5.52605 0,-1.70404 -1.518,-6.50409 -4.57198,-14.35815 h -5.71799 c -0.75001,1.21802 -1.00202,2.814 -0.76202,4.77002 0.98398,4.17605 1.35002,7.7341 1.11602,10.68612 -4.18201,2.94604 -9.942,6.87608 -17.316,11.79013 -1.72798,-0.49199 -2.34,-0.73801 -1.84798,-0.73801 v -26.15426 c -0.49202,-1.21204 -1.71604,-1.71004 -3.68402,-1.47 h -4.42202 l -4.41597,34.62632 c -3.43207,0.24591 -7.61405,0.24591 -12.51604,0 -1.722,-8.10007 -4.79997,-20.12421 -9.20997,-36.09035 H 167.778 c -2.70001,8.59807 -4.16996,13.26013 -4.42198,13.99814 0,0.97801 0.31234,2.88002 0.93,5.70604 0.60601,2.82604 0.91201,4.72205 0.91201,5.70607 0,0.72602 -0.24591,2.58003 -0.744,5.52604 l -1.10401,8.84409 c -0.498,0.48001 -1.10401,0.72603 -1.83601,0.72603 -7.374,0 -12.28801,-1.83603 -14.72999,-5.51407 -2.46605,-3.68403 -3.45002,-8.85607 -2.958,-15.48013 l 2.958,-44.19647 c 0,-0.72599 0.22779,-1.71001 0.72595,-2.95202 0.49205,-1.21802 0.73807,-2.08801 0.73807,-2.56802 0,-1.96804 -2.08802,-5.90404 -6.25802,-11.80214 -0.738,-0.23384 -4.54803,-1.10399 -11.424,-2.58 -4.16997,-0.97802 -12.40201,-2.70001 -24.672,-5.14806 -16.94399,-3.18001 -25.42201,-16.81818 -25.42201,-40.8904 0,-35.86236 14.736,-65.68867 44.202,-89.50891 1.22401,6.63007 3.318,15.45618 6.26402,26.50827 2.214,0.51601 7.008,1.62 14.37596,3.33005 1.482,0.48598 8.96403,3.19803 22.47002,8.11205 -6.87602,-4.17004 -15.84001,-10.92008 -26.87995,-20.2622 -4.18205,-4.90804 -6.27607,-13.13413 -6.27607,-24.67825 0,-2.7 4.66802,-5.88602 14.01005,-9.59406 8.34597,-3.42603 14.60398,-5.38206 18.78596,-5.87409 13.25403,-1.71601 23.44198,-2.592 30.57598,-2.592 30.69001,0 55.49402,7.87207 74.40005,23.59221 -6.13201,7.1281 -16.69804,14.71813 -31.67402,22.84226 5.89201,0.24624 14.49003,-2.08801 25.79399,-7.0081 11.29199,-4.89603 16.08002,-7.36207 14.36399,-7.36207 1.96201,0 5.892,3.92403 11.79005,11.77812 4.41,5.89207 7.97401,11.19012 10.67999,15.84615 7.86003,13.99814 13.14001,29.11232 15.85199,45.31847 0,5.64605 0.11407,9.69609 0.36582,12.1441 v 2.93404 h -0.0335 z m -141.09599,6.64808 c 0,-10.56611 -4.602,-20.5742 -13.81201,-30.03632 -9.21001,-9.45611 -19.104,-14.17809 -29.65799,-14.17809 -9.33001,0 -17.55004,3.95999 -24.678,11.86806 -7.12203,7.91408 -10.674,16.69218 -10.674,26.33432 0,8.40604 4.04399,13.86012 12.15596,16.32012 5.16005,1.48802 12.39003,2.35203 21.72605,2.60405 h 20.25595 c 16.45204,0.21605 24.68404,-4.09204 24.68404,-12.91214 z m 40.15798,45.67245 v -11.4061 c -1.71597,-3.19804 -3.43798,-6.52208 -5.148,-9.96012 -1.47597,-4.90204 -4.18195,-11.77809 -8.11197,-20.63418 l -4.05601,43.1164 c 0,3.44404 -0.72602,5.15406 -2.20802,5.15406 -0.97797,0 -1.72197,-0.23988 -2.21399,-0.73201 -1.71597,-26.03425 -2.574,-37.34437 -2.574,-33.88234 V 179.7498 c -0.49803,-0.75598 -1.11002,-1.12804 -1.84802,-1.12804 -8.346,8.62213 -12.516,22.48826 -12.516,41.62845 0,10.56607 0.97207,17.07017 2.93401,19.54217 1.96802,-0.498 4.17,-1.35601 6.63601,-2.586 0.978,-0.498 3.80402,-0.73801 8.47198,-0.73801 4.65004,0 10.31405,1.47601 16.93801,4.41005 2.46601,-0.007 3.696,-6.63007 3.696,-19.89621 z m 83.25602,-51.33651 c 0,-9.87611 -3.68398,-18.70819 -11.05799,-26.50827 -7.37403,-7.7821 -15.84001,-11.6701 -25.40402,-11.6701 -10.31999,0 -19.96801,4.72206 -28.91999,14.1781 -8.97001,9.44411 -13.45201,19.33823 -13.45201,29.65232 0,8.59807 4.18198,12.88815 12.52802,12.88815 h 42.35998 c 15.96005,-0.24021 23.94601,-6.40808 23.94601,-18.5402 z"/>
  <path d="m 537.11403,405.70605 c 0,4.54803 -1.75797,8.62209 -5.27398,12.2581 -3.51601,3.62404 -7.54799,5.43007 -12.09604,5.43007 -7.24196,0 -12.58797,-3.39604 -15.97797,-10.2061 l -16.00201,-0.67201 c -3.40198,0 -10.10398,1.47601 -20.07,4.42205 -10.66195,2.94001 -16.78799,5.32805 -18.38399,7.13408 -2.48399,2.72402 -4.52997,9.08409 -6.12,19.06816 -1.368,8.16009 -2.034,14.17816 -2.034,18.0362 0,6.12006 0.95999,10.60811 2.88003,13.44013 1.92598,2.83802 5.90395,5.21404 11.90394,7.13407 6.00003,1.90802 9.69603,3.01204 11.06403,3.23403 0.90601,0 2.376,-0.10802 4.42202,-0.34199 h 4.08596 c 2.94601,0 6.00603,0.45599 9.19202,1.36201 4.53001,1.36201 6.46196,3.16203 5.78999,5.44207 -3.18596,-0.44401 -8.73601,0.22813 -16.66799,2.04 l 9.516,4.77006 c 0,2.72402 -3.85799,4.07403 -11.56799,4.07403 -2.05199,0 -4.836,-0.43201 -8.34,-1.35001 -3.52801,-0.924 -5.856,-1.37402 -6.97803,-1.37402 h -4.42198 c -0.22779,2.27404 -0.9,5.65806 -2.04001,10.2061 -3.87598,-0.22209 -8.39401,-2.49603 -13.61998,-6.79805 -5.22,-4.32004 -8.50801,-6.47407 -9.858,-6.47407 -1.368,0 -3.30599,2.15403 -5.79002,6.47407 -2.502,4.30202 -3.744,7.24207 -3.744,8.85009 -2.94602,-1.60802 -5.43598,-4.54807 -7.49397,-8.85009 -0.90598,-2.96403 -1.92598,-5.91605 -3.05401,-8.87411 -2.27401,0.23417 -6.46203,5.01607 -12.59401,14.31015 h -1.70399 c -0.46199,-0.67799 -2.16001,-5.43604 -5.112,-14.31015 -7.03198,-2.25001 -13.608,-3.37802 -19.728,-3.37802 -2.94602,0 -7.49401,0.67201 -13.62002,2.04603 l -9.52197,-0.67802 c 1.35599,-1.36801 5.32799,-3.97203 11.90401,-7.83007 7.70399,-4.54803 13.61397,-6.82207 17.69396,-6.82207 0.67198,0 1.58399,0.12615 2.724,0.35401 1.12803,0.23417 2.04598,0.34797 2.72403,0.34797 1.57198,0 4.134,-0.85201 7.64997,-2.56202 3.51601,-1.698 5.56203,-3.23403 6.11403,-4.59604 0.588,-1.37403 0.86998,-4.87806 0.86998,-10.5541 0,-12.91814 -3.40802,-22.57823 -10.21804,-28.91428 -5.89794,-5.67007 -15.64795,-9.7501 -29.26199,-12.25814 -3.624,12.92412 -13.84197,19.40419 -30.61795,19.40419 -5.45403,0 -10.89601,-3.29402 -16.33803,-9.87608 -5.44199,-6.58807 -8.16599,-12.59413 -8.16599,-18.04221 0,-8.39406 3.51598,-15.30611 10.54802,-20.75419 -5.66404,-5.88605 -8.50801,-11.89812 -8.50801,-18.03617 0,-5.66406 1.752,-10.65612 5.27398,-14.97615 3.51597,-4.29605 8.11801,-6.79805 13.78202,-7.48808 -0.44401,-7.24807 1.92601,-12.25213 7.13997,-14.97015 -2.48996,-2.48402 -3.73196,-6.90007 -3.73196,-13.26611 0,-7.4761 2.48403,-13.72214 7.482,-18.71419 4.97999,-4.98008 11.22597,-7.48808 18.70199,-7.48808 8.17796,0 14.87399,2.85003 20.08798,8.5081 6.58804,-22.45226 20.75402,-33.67837 42.53401,-33.67837 11.33402,0 21.324,4.53605 29.94,13.62015 3.18002,3.39003 4.758,5.20807 4.758,5.43006 -2.71199,0 -1.34999,-0.51601 4.08603,-1.52402 5.45399,-1.02602 9.40798,-1.54203 11.91599,-1.54203 8.84399,0 16.66798,3.30005 23.49002,9.87611 5.89197,5.90407 9.97796,13.37414 12.25201,22.45222 1.57795,0.23417 4.07398,0.90602 7.46995,2.04604 4.99204,2.502 7.49401,6.81006 7.49401,12.93012 0,1.12801 -0.91201,3.29401 -2.724,6.47406 14.51401,8.16607 21.77999,19.50618 21.77999,34.02034 0,4.08603 -1.59599,9.76211 -4.75796,17.01615 5.91599,3.41405 8.86795,8.40611 8.86795,14.98817 z M 396.90607,420.6762 v -4.41606 c 0,-5.21404 -2.54401,-9.98407 -7.65001,-14.29213 -5.106,-4.32003 -10.26001,-6.46205 -15.48001,-6.46205 -6.36,0 -12.25201,1.47601 -17.69399,4.40404 12.02398,-0.66 25.62598,6.24607 40.82401,20.7662 z m -6.12,-42.18043 c -3.39604,-3.87602 -6.348,-7.83608 -8.84403,-11.9101 -9.53399,2.48402 -14.29796,5.33405 -14.29796,8.49608 2.71795,-0.22209 6.69592,0.28215 11.90394,1.53603 5.22003,1.25399 8.97601,1.87799 11.23805,1.87799 z m 20.77192,-10.5661 v -14.97015 c -5.45393,-0.89401 -8.75398,-1.35601 -9.87594,-1.35601 v 5.10605 z m 44.23206,-9.51607 c -2.72399,-1.13401 -7.82999,-3.40805 -15.324,-6.81009 v 29.26228 c 10.66799,-6.13204 15.76795,-13.6081 15.324,-22.45219 z m 18.69595,40.1524 -7.47595,-9.1741 c -4.52998,3.17401 -9.12597,6.39607 -13.78799,9.69008 -4.64998,3.28204 -8.67002,6.97207 -12.06602,11.06411 10.19401,-5.46603 21.32403,-9.30609 33.32996,-11.58009 z"/>
</svg>
