<?xml version="1.0" encoding="UTF-8" standalone="no"?>
<svg xmlns="http://www.w3.org/2000/svg" version="1.1" width="600" height="600">
  <path style="fill:#e49977" d="M 512.094,87.81688 C 566.40601,142.12342 600,217.12417 600,299.97902 600,465.67666 465.67801,600 300,600 217.15799,600 142.17,566.42369 87.87601,512.12314"/>
  <path style="fill:#bab1ab" d="M 87.87601,512.12314 C 33.58202,457.84058 0,382.82786 0,299.98502 0,134.30536 134.32199,0 300,0 382.81201,0 457.80601,33.56434 512.094,87.82288"/>
  <path d="m 529.80004,446.63246 c -10.30798,24.60024 -30.77999,36.87636 -61.44001,36.87636 -5.622,0 -11.71194,0.69 -18.26395,2.10002 -9.83404,2.11803 -14.74808,5.04006 -14.74808,8.7901 0,1.17002 0.81604,2.50801 2.46004,4.04404 1.62599,1.51801 3.04801,2.28601 4.21801,2.28601 -5.86201,0 -1.88401,0.17412 11.92199,0.51001 13.81802,0.36001 22.48203,0.53399 25.998,0.53399 -20.36398,11.93412 -54.42,17.43618 -102.17397,16.50017 -15.68401,-0.22209 -29.14202,-7.12806 -40.37402,-20.70621 -11.01005,-12.8761 -16.50602,-27.27026 -16.50602,-43.18242 0,-16.86015 5.67599,-31.18832 17.034,-43.02042 11.34,-11.80811 25.45203,-17.71816 42.30601,-17.71816 3.738,0 8.71802,0.82201 14.91599,2.44802 6.204,1.63801 10.36203,2.46003 12.46199,2.46003 8.66404,0 19.43402,-3.58204 32.31003,-10.7101 12.87597,-7.13407 18.95998,-10.71014 18.25801,-10.71014 -2.34601,24.58227 -10.53601,41.09442 -24.58202,49.50049 -10.06801,5.86805 -15.09601,11.60411 -15.09601,17.20219 0,3.516 2.1,6.33004 6.312,8.43606 3.276,1.62604 6.906,2.44802 10.89001,2.44802 6.084,0 12.048,-3.73804 17.90401,-11.23208 5.844,-7.48211 8.41797,-14.27415 7.716,-20.36422 -0.69603,-7.03209 -0.22209,-15.45614 1.40997,-25.27824 0.46203,-2.82004 2.16605,-6.27005 5.08802,-10.36209 2.92797,-4.10406 5.56799,-6.62407 7.90199,-7.57209 0,2.12401 -0.76202,5.63404 -2.27998,10.53612 -1.52401,4.92002 -2.28002,8.56207 -2.28002,10.88408 0,5.16006 1.404,9.1381 4.21801,11.94013 4.20599,-1.62601 7.94396,-6.90007 11.232,-15.80414 2.808,-6.7801 4.44,-13.34414 4.92001,-19.64423 -9.83998,-0.468 -19.26604,-4.92002 -28.26601,-13.36212 -9.006,-8.42409 -13.51198,-17.55015 -13.51198,-27.37826 0,-1.62604 0.22209,-3.28204 0.70196,-4.91405 1.39199,2.118 3.49799,5.39404 6.31804,9.84008 3.972,5.85006 7.02,8.7781 9.12597,8.7781 2.808,0 4.212,-2.92804 4.212,-8.7781 0,-7.49405 -1.99197,-14.28012 -5.97,-20.37019 -4.45802,-7.26608 -10.19399,-10.88411 -17.20198,-10.88411 -3.28801,0 -8.19601,1.75201 -14.74801,5.26805 -6.55801,3.50404 -12.52801,5.26806 -17.89801,5.26806 -1.63796,0 -8.90394,-2.11803 -21.77398,-6.32407 22.69794,-3.75004 34.05599,-7.14008 34.05599,-10.19408 0,-7.95012 -15.56401,-13.33814 -46.698,-16.12819 -3.04801,-0.23384 -8.65797,-0.70201 -16.85401,-1.41002 0.92999,-1.16401 7.60804,-2.44201 20.01601,-3.86401 10.53001,-1.15203 17.89797,-1.75802 22.10998,-1.75802 55.71,0 91.05002,27.03626 106.03804,81.12682 2.58597,-2.14803 3.87594,-5.70007 3.87594,-10.68014 0,-6.40805 -1.87794,-14.47212 -5.62794,-24.19824 -1.41001,-3.81003 -3.64205,-9.50409 -6.67801,-17.09415 19.18797,24.45025 28.79999,47.62847 28.79999,69.49869 0,11.53211 -2.70605,22.0022 -8.08801,31.39229 -3.498,6.35406 -10.06801,14.46014 -19.65598,24.35423 -9.59997,9.87011 -16.14601,17.51419 -19.66201,22.92624 12.87601,-3.51604 21.30598,-6.21004 25.28402,-8.08206 8.886,-3.98405 16.96797,-9.96012 24.22198,-17.9102 0,3.06002 -1.28997,7.63207 -3.858,13.68615 z M 376.716,308.65509 c 0,4.20604 -2.34597,6.91208 -7.01994,8.08806 l -9.126,1.39204 c -3.28204,1.63201 -8.08204,8.08807 -14.38804,19.31418 -0.71401,-3.50403 -1.75797,-8.41809 -3.16797,-14.74212 -2.106,0.22209 -5.61,2.11199 -10.53001,5.61602 -2.10596,1.63802 -5.50197,4.10405 -10.19401,7.37408 1.41,-8.41808 6.10202,-16.95617 14.05205,-25.62623 8.42393,-9.5881 16.61998,-14.37617 24.57598,-14.37617 10.52994,-0.0134 15.79794,4.31406 15.79794,12.96014 z m 61.09204,32.31032 c 0,3.97204 -2.16598,7.32006 -6.49802,10.00809 -4.33201,2.68205 -8.60403,4.03806 -12.80999,4.03806 -5.62798,0 -10.66198,-3.14402 -15.10201,-9.48611 -5.38798,-7.71007 -10.88401,-12.75013 -16.49998,-15.09616 1.164,-1.17001 2.574,-1.75802 4.22401,-1.75802 2.09399,0 5.66398,1.62604 10.69798,4.90808 5.022,3.29402 8.25006,4.92003 9.66,4.92003 1.17003,0 3.09605,-1.62601 5.78398,-4.92003 2.688,-3.28204 5.67602,-4.90808 8.95806,-4.90808 7.72797,0 11.58597,4.10405 11.58597,12.29414 z"/>
  <path d="m 319.54201,168.66168 c 0,16.20616 -5.89197,27.25828 -17.68796,33.15035 -3.44401,1.72202 -14.23801,4.06805 -32.41802,6.99608 -11.78401,1.97398 -17.67598,6.52805 -17.67598,13.62609 v 29.83831 c 0,1.25406 0.37796,5.05204 1.10398,11.43613 l 1.11001,11.79013 c 0,3.67802 -0.864,9.7021 -2.58601,18.04815 -4.66202,0.97801 -10.06797,2.08804 -16.20002,3.33005 -1.97395,-7.37408 -2.94602,-12.41411 -2.94602,-15.12015 0,-1.21802 0.29993,-3.07202 0.91205,-5.52605 0.61202,-2.44801 0.92399,-4.29605 0.92399,-5.52604 0,-1.70404 -1.518,-6.5041 -4.57198,-14.35816 h -5.71802 c -0.75598,1.21802 -1.00199,2.814 -0.76202,4.77003 0.99002,4.17604 1.35002,7.73409 1.11002,10.68611 -4.18201,2.94605 -9.94197,6.87608 -17.30997,11.79013 -1.73402,-0.49199 -2.334,-0.738 -1.84801,-0.738 v -26.15426 c -0.49199,-1.21205 -1.716,-1.71005 -3.68399,-1.47001 h -4.42205 l -4.42198,34.62632 c -3.43797,0.24592 -7.608,0.24592 -12.51597,0 -1.722,-8.10007 -4.794,-20.1242 -9.20403,-36.09035 h -2.958 c -2.69997,8.59807 -4.176,13.26014 -4.42198,13.99814 0,0.97802 0.31233,2.88003 0.92999,5.70604 0.60599,2.82604 0.91202,4.72205 0.91202,5.70607 0,0.72603 -0.25195,2.58003 -0.75004,5.52605 l -1.09798,8.84408 c -0.49799,0.48002 -1.10401,0.72603 -1.842,0.72603 -7.36797,0 -12.28798,-1.83602 -14.73,-5.51407 -2.46598,-3.68402 -3.45599,-8.85606 -2.958,-15.48013 l 2.958,-44.19646 c 0,-0.726 0.23417,-1.71002 0.72602,-2.95202 0.49199,-1.21803 0.73797,-2.08801 0.73797,-2.56803 0,-1.96803 -2.08799,-5.90404 -6.25802,-11.80214 -0.73797,-0.23383 -4.54796,-1.10399 -11.42394,-2.58 -4.17604,-0.97801 -12.40204,-2.7 -24.67203,-5.14805 -16.94402,-3.18002 -25.422,-16.81818 -25.422,-40.89041 0,-35.86236 14.736,-65.68866 44.20196,-89.5089 1.22405,6.63007 3.31804,15.45617 6.26402,26.50827 2.20802,0.51601 7.00206,1.62 14.36399,3.33004 1.48203,0.48599 8.97003,3.19804 22.47001,8.11205 -6.87598,-4.17004 -15.83998,-10.92008 -26.87999,-20.26219 -4.182,-4.90805 -6.276,-13.13413 -6.276,-24.67825 0,-2.7 4.66803,-5.88603 14.00998,-9.59407 8.34601,-3.42603 14.60403,-5.38206 18.78604,-5.87409 13.25396,-1.71601 23.44801,-2.592 30.57597,-2.592 30.69002,0 55.49403,7.87207 74.406,23.59221 -6.13198,7.1281 -16.69795,14.71813 -31.67395,22.84226 5.89197,0.24625 14.48999,-2.088 25.78795,-7.00809 11.29202,-4.89604 16.08001,-7.36207 14.36401,-7.36207 1.96201,0 5.89201,3.92403 11.79002,11.77812 4.41,5.89206 7.97398,11.19011 10.67996,15.84614 7.86006,13.99815 13.14004,29.11232 15.84602,45.31847 0,5.64605 0.1201,9.69609 0.36581,12.14411 v 2.92803 z m -141.09595,6.64809 c 0,-10.56611 -4.60204,-20.5742 -13.80601,-30.03632 -9.21601,-9.45611 -19.104,-14.1781 -29.65799,-14.1781 -9.33001,0 -17.55004,3.95999 -24.68404,11.86807 -7.12199,7.91408 -10.68,16.69217 -10.68,26.33431 0,8.40604 4.05003,13.86013 12.162,16.32012 5.15401,1.48802 12.39003,2.35204 21.72601,2.60405 h 20.25599 c 16.45203,0.21606 24.68404,-4.09204 24.68404,-12.91213 z m 40.15197,45.67244 v -11.4061 c -1.716,-3.19803 -3.43798,-6.52207 -5.14801,-9.96012 -1.47596,-4.90204 -4.18197,-11.77808 -8.10596,-20.63418 l -4.05604,43.1164 c 0,3.44405 -0.72598,5.15406 -2.20798,5.15406 -0.97797,0 -1.72198,-0.23987 -2.214,-0.732 -1.722,-26.03426 -2.574,-37.34437 -2.574,-33.88235 v -12.88811 c -0.49802,-0.75599 -1.11001,-1.12804 -1.84801,-1.12804 -8.34601,8.62212 -12.516,22.48825 -12.516,41.62844 0,10.56608 0.978,17.07017 2.94001,19.54217 1.97399,-0.49799 4.17,-1.356 6.64201,-2.586 0.97797,-0.498 3.79802,-0.738 8.47198,-0.738 4.64998,0 10.31399,1.47601 16.93802,4.41004 2.454,-0.007 3.67798,-6.63007 3.67798,-19.89621 z m 83.25602,-51.33651 c 0,-9.87611 -3.68398,-18.70818 -11.05202,-26.50827 -7.374,-7.78209 -15.83997,-11.67009 -25.41002,-11.67009 -10.31396,0 -19.96794,4.72205 -28.92597,14.1781 -8.964,9.4441 -13.452,19.33823 -13.452,29.65232 0,8.59807 4.182,12.88815 12.52801,12.88815 h 42.35999 c 15.97202,-0.24021 23.95201,-6.40808 23.95201,-18.54021 z"/>
</svg>
