<?xml version="1.0" encoding="UTF-8" standalone="no"?>
<svg xmlns="http://www.w3.org/2000/svg" version="1.1" width="300px" height="300px">
  <path style="fill:#ccc2c0" d="M 300,150 C 300,232.827 232.854,300 150,300 67.146,300 0,232.827 0,150 0,67.173 67.146,0 150,0 232.854,0 300,67.173 300,150 Z"/>
  <path d="m 149.062,36.079 c 7.424,14.903 16.512,29.378 27.288,43.424 4.584,5.897 9.838,12.063 15.762,18.442 5.843,6.379 12.33,12.759 19.353,19.031 7.076,6.272 14.823,12.223 23.267,17.852 8.444,5.629 17.53,10.775 27.287,15.386 -14.34,7.667 -28.547,16.995 -42.674,28.038 -5.869,4.61 -12.008,9.918 -18.441,15.976 -6.379,6.005 -12.651,12.599 -18.79,19.729 -6.138,7.237 -12.035,15.011 -17.69,23.481 -5.63,8.417 -10.75,17.369 -15.36,26.858 -7.184,-14.1 -16.136,-28.038 -26.885,-41.869 -9.221,-11.794 -20.881,-24.178 -34.98,-37.259 -14.072,-13.081 -31.12,-24.714 -51.09,-34.954 14.367,-7.451 28.574,-16.672 42.673,-27.662 12.035,-9.489 24.446,-21.337 37.232,-35.543 12.81,-14.207 23.8,-31.148 33.048,-50.93 z M 132.55,194.764 c 6.674,8.471 12.169,17.048 16.512,25.733 5.656,-12.063 12.438,-22.409 20.344,-31.094 7.936,-8.738 15.654,-16.029 23.08,-21.927 8.443,-6.594 17.262,-12.384 26.51,-17.315 -12.304,-5.576 -22.758,-12.384 -31.309,-20.318 -8.604,-7.935 -15.842,-15.601 -21.711,-23.053 -6.675,-8.416 -12.331,-17.369 -16.915,-26.858 -5.629,12.277 -12.384,22.784 -20.157,31.47 -7.827,8.738 -15.439,15.976 -22.865,21.926 -8.47,6.647 -17.289,12.223 -26.51,16.887 12.303,6.38 22.784,13.563 31.496,21.498 8.712,7.935 15.896,15.653 21.525,23.051 z"/>
</svg>