<?xml version="1.0" encoding="UTF-8" standalone="no"?>
<svg xmlns="http://www.w3.org/2000/svg" version="1.1" width="600" height="600">
   <circle cx="300" cy="300" r="300" style="fill:#a3c095;stroke-width:6"/>
  <path d="m 465.3721,299.56209 c 0.3482,-32.06402 -9.8399,-64.43404 -29.802,-89.56803 -9.6479,-10.62599 -17.5799,-22.722 -27.798,-32.76598 -22.524,-22.35602 -56.25,-23.84403 -83.382,-37.926 -1.578,-14.14203 -6.75,-28.29003 -3.618,-42.558026 0.954,-4.745992 2.352,-9.557973 -0.1738,-14.093986 -7.116,-16.392017 -1.002,-34.188001 -2.268,-51.281985 -0.948,-8.928001 -0.3417,-19.854013 -8.844,-25.368023 -1.98,18.582021 -8.814,35.874007 -14.352,53.508019 -2.556,13.739983 -2.556,28.055991 -8.4779,41.015971 3.7559,13.12803 -3.6841,24.18001 -11.7361,33.876 -17.796,9.12 -38.976,11.28602 -54.462,24.66002 -11.046,9.37198 -22.968,17.58601 -35.328,25.212 -9.27,11.60399 -19.53594,22.78198 -23.66393,37.44001 -16.57204,20.01001 -18.52805,46.86598 -27.92405,70.30202 -0.17378,34.79398 6.87598,72.25792 29.10002,100.14593 15.89996,13.128 27.01196,30.786 42.88796,43.91999 15.24,9.09605 31.5061,16.57201 47.244,24.76204 10.26,2.38801 20.85,3.56399 31.056,6.35397 8.28,42.65401 13.932,86.346 30.552,126.79803 5.514,-16.60804 4.848,-34.40402 9.606,-51.18601 6.708,-24.81605 -7.056,-50.646 0.702,-75.006 11.628,-10.39803 31.02,-3.64802 43.9201,-12.57002 24.552,-15.13801 50.5319,-29.87998 68.3399,-53.04002 6.63,-13.31398 20.556,-23.26199 20.556,-39.23401 0.1141,-21.50996 12.6541,-41.65192 7.866,-63.39591 z m -182.244,131.57994 c -17.79,-4.326 -34.362,-12.834 -49.284,-23.22602 -16.056,-10.69798 -22.044,-30.65999 -37.884,-41.60398 -14.832,-17.70601 -11.622,-41.89199 -17.7,-62.85595 2.436,-14.62801 5.31,-29.13601 6.828,-43.95005 7.236,-11.73597 18.402,-21.09597 21.498,-35.21995 10.602,-15.19202 26.748,-25.70401 39.714,-38.87401 9.432,-10.878 24.444,-6.29401 36.834,-6.714 -1.23,11.99999 -2.208,24.408 0.7981,36.24599 1.4639,7.27202 4.7459,14.43601 3.6179,22.05599 -2.484,16.19402 3.594,32.43601 -0.702,48.44403 -8.658,33.46799 0.786,67.25394 1.608,100.99196 -1.23,14.94601 -1.926,29.99999 -5.328,44.70599 z M 417.9902,367.722 c -11.7841,8.376 -21.8221,18.666 -32.1061,28.70999 -17.874,12.36003 -35.538,25.44002 -56.814,31.62004 1.92,-15.17398 3.792,-30.786 -1.044,-45.642 -11.868,-33.564 2.676,-68.66999 5.13,-102.61198 -2.166,-20.17799 -0.096,-41.70599 -9.348,-60.29399 -1.212,-13.96201 4.824,-27.444 8.916,-40.584 14.0521,5.60999 27.282,13.182 38.976,22.92 14.124,10.58401 35.76,17.44802 38.922,37.188 1.614,12.96602 15.804,20.80802 15.39,34.074 -0.888,31.536 3.462,64.51797 -8.0219,94.61994 z" />
</svg>
