<?xml version="1.0" encoding="UTF-8" standalone="no"?>
<svg xmlns="http://www.w3.org/2000/svg" version="1.1" width="600" height="1059.6681">
  <path d="m 598.03209,529.05024 c 0.63785,-57.78475 -17.72255,-116.11063 -53.70841,-161.4172 -17.3766,-19.13913 -31.69307,-40.94903 -50.09695,-59.05012 -40.60296,-40.27859 -101.37232,-42.96024 -150.25814,-68.33849 -2.85468,-25.4863 -12.16469,-50.9836 -6.53114,-76.70774 1.71931,-8.55323 4.24956,-17.21445 -0.31318,-25.38908 C 324.28913,108.60632 335.32927,76.524 333.04768,45.7284 331.33926,29.63858 332.42083,9.94805 317.08767,0 c -3.5683,33.49883 -15.88445,64.66203 -25.8649,96.43086 -4.60634,24.77268 -4.60634,50.56182 -15.27882,73.91805 6.77976,23.66977 -6.62842,43.58733 -21.13951,61.05051 -32.09314,16.43578 -70.2416,20.33926 -98.16087,44.43074 -19.89609,16.9009 -41.39238,31.70396 -63.65652,45.44727 -16.70615,20.91255 -35.20731,41.05725 -42.65751,67.4733 -29.8656,36.05116 -33.39067,84.46097 -50.32391,126.69659 -0.31319,62.705 12.39178,130.22202 52.44334,180.4807 28.65459,23.65925 48.68037,55.48182 77.30249,79.13019 27.47598,16.41432 56.79018,29.88725 85.15281,44.62561 18.47951,4.32471 37.57535,6.44445 55.96841,11.47231 14.91116,76.8702 25.10788,155.58927 55.06006,228.51207 9.92634,-29.9302 8.72615,-62.02366 17.30084,-92.26762 12.09982,-44.71207 -12.71615,-91.25124 1.26513,-135.16282 20.95572,-18.72873 55.90348,-6.56355 79.15154,-22.64292 44.24707,-27.28141 91.06756,-53.8488 123.17158,-95.58744 11.94837,-23.9942 37.04548,-41.92183 37.04548,-70.70629 0.20557,-38.74344 22.80471,-75.05337 14.16514,-114.25087 z M 269.60719,766.20201 C 237.54646,758.40629 207.68086,743.073 180.79956,724.34487 151.86384,705.06535 141.07243,669.10126 112.52595,649.36708 85.78529,617.4792 91.57023,573.89169 80.61661,536.1005 c 4.39013,-26.37331 9.56957,-52.51929 12.31615,-79.21666 13.0297,-21.13927 33.15276,-37.99676 38.73232,-63.46196 19.12831,-27.38916 48.21537,-46.33361 71.5716,-70.06825 16.99811,-19.60407 44.05238,-11.32128 66.38133,-12.09989 -2.20583,21.6261 -3.95754,44.00916 1.44893,65.32153 2.63842,13.11622 8.55317,26.03776 6.53114,39.7489 -4.47665,29.1847 6.46621,58.47702 -1.26519,87.32617 -15.60318,60.29385 1.41652,121.20379 2.89798,182.0055 -2.22753,26.90294 -3.49266,54.04348 -9.62368,80.54617 z M 512.65225,651.90822 c -21.22603,15.11684 -39.32713,33.6394 -57.84987,51.74055 -32.21206,22.2856 -64.05652,45.84751 -102.38878,56.98487 3.44931,-27.34672 6.82299,-55.48183 -1.88146,-82.25478 -21.39907,-60.48853 4.80096,-123.7558 9.23432,-184.92512 -3.90355,-36.36434 -0.1838,-75.16159 -16.86837,-108.66012 -2.17342,-25.15141 8.71526,-49.45916 16.06824,-73.13975 25.32408,10.12102 49.16689,23.75623 70.24153,41.30587 25.45395,19.09554 64.45665,31.44452 70.15508,67.03013 2.89797,23.35635 28.47079,37.4889 27.72471,61.39664 -1.57874,56.83311 6.26076,116.26178 -14.4354,170.52171 z"/>
</svg>
