<?xml version="1.0" encoding="UTF-8" standalone="no"?>
<svg xmlns="http://www.w3.org/2000/svg" version="1.1" width="600" height="600">
  <circle cx="300" cy="300" r="300" id="circle345" style="fill:#000000;stroke-width:6"/>
  <path style="fill:#ffffff" d="m 473.6705,145.67403 -75.8885,44.50799 c 36.9603,57.39601 55.4283,110.436 55.4283,159.07199 0,39.88798 -11.8141,71.86202 -35.3697,95.928 -23.6285,24.10801 -55.3143,36.13803 -95.2262,36.13803 -66.6781,0 -142.3143,-34.78204 -226.9442,-104.34602 l 60.564,-59.86203 c 57.936,52.56002 112.3797,78.81003 163.4763,78.81003 18.4677,0 31.2419,-3.38396 38.2737,-10.19399 7.08,-6.822 10.5959,-19.46404 10.5959,-37.93203 0,-36.97198 -11.2018,-69.57596 -33.5638,-97.76997 l -53.9764,75.85796 V 118.69803 Z"/>
</svg>
