<?xml version="1.0" encoding="UTF-8" standalone="no"?>
<svg xmlns="http://www.w3.org/2000/svg" version="1.1" width="300" height="600">
  <circle cx="0" cy="300" r="300" style="fill:#e49977;stroke-width:6"/>
  <path d="m 251.7901,399.70199 c -22.41596,53.47202 -66.95998,80.20201 -133.64998,80.20201 -12.22202,0 -25.47602,1.52397 -39.72603,4.57201 -21.38399,4.58399 -32.07593,10.96798 -32.07593,19.11595 0,2.54404 1.76994,5.46004 5.34594,8.77801 3.552,3.31803 6.62403,4.95603 9.162,4.95603 -12.738,0 -4.07999,0.3842 25.95603,1.14602 30.04799,0.76198 48.888,1.14598 56.53197,1.14598 -44.29798,25.95599 -118.39201,37.91402 -222.25799,35.88598 -34.12798,-0.50399 -63.39601,-15.52801 -87.83397,-45.05999 -23.95202,-28.01399 -35.90401,-59.328 -35.90401,-93.94801 0,-36.648 12.34203,-67.84798 37.05599,-93.57001 24.678,-25.69197 55.37399,-38.56197 92.02803,-38.56197 8.14196,0 18.95998,1.78199 32.45999,5.346 13.48797,3.56398 22.536,5.34601 27.10798,5.34601 18.834,0 42.26998,-7.75797 70.27799,-23.29803 C 84.26412,256.23 97.51809,248.45999 95.99412,248.45999 90.89409,301.93202 73.07409,337.83602 42.51012,356.14798 20.62213,368.88601 9.6721,381.354 9.6721,393.56401 c 0,7.638 4.58399,13.75796 13.74599,18.34202 7.12803,3.56998 15.012,5.35194 23.67001,5.35194 13.24199,0 26.22602,-8.13599 38.96402,-24.42595 12.71397,-16.30805 18.32997,-31.06203 16.80597,-44.316 -1.52397,-15.27002 -0.50397,-33.61801 3.06001,-54.98402 1.008,-6.12003 4.69802,-13.62001 11.064,-22.52399 6.36601,-8.91603 12.09601,-14.38801 17.19003,-16.42802 0,4.57198 -1.65004,12.22202 -4.96805,22.90799 -3.318,10.68601 -4.956,18.60001 -4.956,23.68205 0,11.20198 3.04804,19.85395 9.16207,25.956 9.14995,-3.55204 17.29795,-15.01204 24.44397,-34.37403 6.09597,-14.75401 9.65398,-29.01601 10.68597,-42.762 -21.39597,-1.02 -41.89199,-10.686 -61.48798,-29.02802 -19.608,-18.34198 -29.40001,-38.18996 -29.40001,-59.568 0,-3.56399 0.49202,-7.12797 1.53598,-10.69795 3.04807,4.58395 7.62602,11.71795 13.73401,21.38395 8.65804,12.72602 15.282,19.09199 19.878,19.09199 6.09605,0 9.15002,-6.36597 9.15002,-19.09199 0,-16.28996 -4.33801,-31.05599 -12.984,-44.29801 -9.67801,-15.78597 -22.15801,-23.68195 -37.428,-23.68195 -7.134,0 -17.82598,3.822 -32.06399,11.46 -14.274,7.62595 -27.25804,11.45996 -38.95201,11.45996 -3.57602,0 -19.374,-4.59599 -47.37,-13.75796 C 2.5321,105.132 27.24009,97.745984 27.24009,91.115981 27.24009,73.80598 -6.6299,62.08803 -74.33984,55.98597 c -6.63007,-0.50396 -18.84604,-1.52397 -36.66602,-3.05995 2.028,-2.544 16.54795,-5.346 43.54798,-8.40001 22.90798,-2.532 38.95197,-3.822 48.108,-3.822 121.18199,0 198.07194,58.829969 230.658,176.44801 5.604,-4.63803 8.412,-12.39603 8.412,-23.22603 0,-13.94402 -4.08002,-31.5 -12.22202,-52.66203 -3.07199,-8.24998 -7.908,-20.64598 -14.51998,-37.15797 41.74196,53.20203 62.63398,103.62 62.63398,151.19402 0,25.068 -5.874,47.83797 -17.58,68.28599 -7.62001,13.81798 -21.89998,31.46397 -42.76202,52.95602 -20.87999,21.47997 -35.14195,38.11196 -42.78596,49.87802 28.00799,-7.62602 46.35,-13.488 55.00797,-17.56806 19.33804,-8.63995 36.90001,-21.63597 52.69801,-38.95197 0,6.636 -2.802,16.572 -8.4,29.80198 z M -81.22185,99.551995 c 0,9.149995 -5.10003,15.012005 -15.27003,17.555975 l -19.86599,3.06002 c -7.134,3.56402 -17.56802,17.56802 -31.31404,42.00001 -1.53598,-7.62602 -3.82197,-18.31796 -6.87598,-32.07602 -4.58395,0.51604 -12.20997,4.58402 -22.90802,12.22201 -4.58395,3.56402 -11.97598,8.90398 -22.15798,16.03201 3.07202,-18.33 13.24202,-36.88801 30.56403,-55.75801 18.32998,-20.862005 36.14998,-31.302 53.45998,-31.302 22.90803,0 34.36803,9.43203 34.36803,28.266005 z M 51.67812,169.80604 c 0,8.65797 -4.70999,15.92395 -14.13001,21.77398 -9.42002,5.86198 -18.71401,8.78995 -27.87601,8.78995 -12.22195,0 -23.17795,-6.87598 -32.83794,-20.62797 -11.73003,-16.80601 -23.68205,-27.75 -35.904,-32.86204 2.54397,-2.53196 5.60395,-3.80995 9.17394,-3.80995 4.58402,0 12.33004,3.56398 23.28605,10.686 10.94395,7.134 17.93994,10.69798 21.01193,10.69798 2.54401,0 6.73806,-3.56398 12.60004,-10.69798 5.85,-7.12803 12.34199,-10.686 19.47599,-10.686 16.8,0.007 25.20001,8.92199 25.20001,26.73603 z"/>
</svg>
