<?xml version="1.0" encoding="UTF-8" standalone="no"?>
<svg xmlns="http://www.w3.org/2000/svg" version="1.1" width="600" height="600">
  <path style="fill:#a3c095" d="M 512.094,87.81687 C 566.41201,142.12342 600,217.12417 600,299.97901 600,465.67666 465.67801,600 300,600 217.15799,600 142.17,566.42369 87.87601,512.12314"/>
  <path style="fill:#e49977" d="M 87.87601,512.12314 C 33.57601,457.84058 0,382.82786 0,299.98502 0,134.30536 134.32199,0 300,0 382.81201,0 457.80601,33.56434 512.094,87.82288"/>
  <path d="m 311.622,228.45827 c -10.30798,24.59428 -30.77998,36.87637 -61.43997,36.87637 -5.622,0 -11.71201,0.69003 -18.26401,2.10002 -9.83398,2.11803 -14.74198,5.04607 -14.74198,8.7901 0,1.17002 0.816,2.50804 2.454,4.04404 1.63196,1.51801 3.04801,2.28004 4.21798,2.28004 -5.86198,0 -1.87798,0.17982 11.92199,0.51598 13.81198,0.36001 22.47605,0.53402 25.99203,0.53402 -20.36999,11.92812 -54.42001,17.43615 -102.17397,16.50015 -15.68408,-0.2221 -29.14206,-7.12807 -40.37403,-20.70618 -11.00404,-12.87614 -16.49997,-27.27026 -16.49997,-43.17642 0,-16.86019 5.66994,-31.19432 17.03396,-43.02646 11.33996,-11.80211 25.452,-17.71819 42.30601,-17.71819 3.738,0 8.71799,0.82201 14.91599,2.44805 6.204,1.63798 10.36199,2.46002 12.46202,2.46002 8.66398,0 19.42798,-3.58206 32.30399,-10.71009 12.87598,-7.14008 18.96599,-10.7101 18.26399,-10.7101 -2.34598,24.57623 -10.53601,41.08838 -24.58199,49.50646 -10.07405,5.86808 -15.09601,11.5981 -15.09601,17.19618 0,3.51604 2.09399,6.33007 6.31203,8.43606 3.27597,1.62604 6.90597,2.44805 10.88998,2.44805 6.084,0 12.048,-3.73803 17.90401,-11.22611 5.84393,-7.48808 8.41797,-14.28015 7.71593,-20.37619 -0.68995,-7.02608 -0.22209,-15.45618 1.41004,-25.27227 0.46196,-2.82604 2.16599,-6.27006 5.08802,-10.36213 2.928,-4.10402 5.56799,-6.62403 7.90199,-7.56604 0,2.11799 -0.76802,5.62806 -2.28602,10.53011 -1.52397,4.91405 -2.27999,8.56807 -2.27999,10.88411 0,5.15406 1.39797,9.13207 4.21197,11.9401 4.212,-1.62601 7.95,-6.90007 11.23201,-15.80414 2.808,-6.78607 4.44003,-13.34415 4.92004,-19.65621 -9.84002,-0.45002 -19.26601,-4.90804 -28.27204,-13.35015 -9.01198,-8.42408 -13.51199,-17.55615 -13.51199,-27.37825 0,-1.63204 0.22209,-3.28204 0.702,-4.91408 1.39202,2.11806 3.49802,5.3941 6.32404,9.84011 3.96596,5.83808 7.01997,8.76608 9.12594,8.76608 2.808,0 4.20603,-2.928 4.20603,-8.76608 0,-7.48808 -1.986,-14.27411 -5.96404,-20.37019 -4.45197,-7.26608 -10.18798,-10.88411 -17.20197,-10.88411 -3.28798,0 -8.19601,1.75798 -14.74801,5.27406 -6.55798,3.504 -12.52798,5.26205 -17.89197,5.26205 -1.64397,0 -8.90405,-2.12404 -21.78003,-6.33008 22.69805,-3.74403 34.05599,-7.13403 34.05599,-10.1821 0,-7.95609 -15.56401,-13.34411 -46.698,-16.14013 -3.04196,-0.22813 -8.65193,-0.69604 -16.848,-1.41002 0.93003,-1.15804 7.608,-2.44805 20.01605,-3.86405 10.52997,-1.15199 17.89797,-1.76402 22.10997,-1.76402 55.70997,0 91.05002,27.04826 106.03801,81.12682 2.58598,-2.14206 3.87598,-5.69406 3.87598,-10.67411 0,-6.41408 -1.87797,-14.48413 -5.62198,-24.21024 -1.40997,-3.79805 -3.64201,-9.50409 -6.67797,-17.08818 19.18193,24.45025 28.79996,47.62847 28.79996,69.50469 0,11.5201 -2.70598,21.99623 -8.08798,31.38032 -3.498,6.36607 -10.06805,14.47215 -19.65598,24.35423 -9.59404,9.87611 -16.14604,17.52019 -19.66201,22.93224 12.87597,-3.51601 21.31199,-6.21608 25.28996,-8.0881 8.88002,-3.978 16.962,-9.95407 24.21604,-17.90415 -0.007,3.06602 -1.29601,7.62006 -3.858,13.69812 z M 158.532,90.4749 c 0,4.21205 -2.34598,6.90007 -7.02001,8.08807 l -9.12593,1.39801 c -3.28805,1.62604 -8.08205,8.07608 -14.38804,19.3082 -0.70797,-3.50403 -1.758,-8.42409 -3.16801,-14.74812 -2.10597,0.23383 -5.61597,2.11799 -10.52997,5.62203 -2.106,1.63204 -5.50197,4.10408 -10.18801,7.37411 1.41004,-8.42409 6.10198,-16.9562 14.05201,-25.62627 8.42401,-9.5941 16.62602,-14.37614 24.57602,-14.37614 10.52997,-0.0168 15.79194,4.31403 15.79194,12.96011 z m 61.09204,32.31032 c 0,3.96607 -2.16002,7.32611 -6.49803,10.00813 -4.332,2.68799 -8.60402,4.044 -12.80998,4.044 -5.62798,0 -10.66202,-3.14999 -15.10202,-9.49205 C 179.826,119.6352 174.33,114.59514 168.708,112.24911 c 1.15802,-1.17001 2.57403,-1.75799 4.22404,-1.75799 2.1,0 5.66398,1.62601 10.69795,4.90801 5.02203,3.29405 8.24405,4.92009 9.65406,4.92009 1.16996,0 3.10198,-1.62604 5.78995,-4.92009 2.68803,-3.282 5.67001,-4.90801 8.95802,-4.90801 7.73402,0 11.59202,4.10402 11.59202,12.2941 z"/>
  <path d="m 537.11399,405.70605 c 0,4.54803 -1.758,8.62209 -5.27397,12.2581 -3.51598,3.62404 -7.54803,5.43007 -12.09605,5.43007 -7.24199,0 -12.58796,-3.39604 -15.97796,-10.2061 l -16.00202,-0.67201 c -3.40197,0 -10.104,1.47601 -20.06999,4.42205 -10.66202,2.94001 -16.78799,5.32805 -18.37798,7.13408 -2.48403,2.72402 -4.53005,9.08409 -6.12601,19.06816 -1.368,8.16009 -2.03401,14.17816 -2.03401,18.0362 0,6.12006 0.95999,10.60811 2.88003,13.44013 1.92602,2.83802 5.90399,5.21404 11.90398,7.13407 6,1.90802 9.69599,3.01204 11.064,3.23403 0.90601,0 2.376,-0.10802 4.42201,-0.34199 h 4.086 c 2.94598,0 6.006,0.45599 9.19199,1.36201 4.53004,1.36201 6.46199,3.16203 5.79002,5.44207 -3.18599,-0.44401 -8.73604,0.22813 -16.66802,2.04 l 9.516,4.77006 c 0,2.72402 -3.858,4.07403 -11.56799,4.07403 -2.05202,0 -4.83597,-0.43201 -8.34,-1.35001 -3.52802,-0.924 -5.85597,-1.37402 -6.97803,-1.37402 h -4.42198 c -0.2278,2.27404 -0.90001,5.65806 -2.04002,10.2061 -3.87598,-0.22209 -8.39397,-2.49603 -13.61997,-6.79805 -5.21997,-4.32004 -8.50801,-6.47407 -9.858,-6.47407 -1.368,0 -3.30603,2.15403 -5.79002,6.47407 -2.50197,4.30202 -3.744,7.24207 -3.744,8.85009 -2.94602,-1.60802 -5.43598,-4.54807 -7.49398,-8.85009 -0.90604,-2.96403 -1.92601,-5.91605 -3.05397,-8.87411 -2.27405,0.23417 -6.46203,5.01607 -12.59404,14.31015 h -1.70399 c -0.462,-0.67799 -2.16001,-5.43604 -5.112,-14.31015 -7.03202,-2.25001 -13.60801,-3.37802 -19.72801,-3.37802 -2.94602,0 -7.49397,0.67201 -13.62001,2.04603 l -9.52198,-0.67802 c 1.356,-1.36801 5.32796,-3.97203 11.90402,-7.83007 7.70398,-4.54803 13.61397,-6.82207 17.69399,-6.82207 0.67198,0 1.58399,0.12615 2.724,0.35401 1.12796,0.23417 2.04602,0.34797 2.72399,0.34797 1.57198,0 4.13401,-0.85201 7.64998,-2.56202 3.51597,-1.698 5.56199,-3.23403 6.11399,-4.59604 0.58797,-1.37403 0.87002,-4.87806 0.87002,-10.5541 0,-12.91814 -3.40802,-22.57823 -10.21801,-28.91428 -5.89798,-5.67007 -15.64798,-9.7501 -29.26199,-12.25814 -3.624,12.92412 -13.84203,19.40419 -30.61798,19.40419 -5.454,0 -10.89598,-3.29402 -16.338,-9.87608 -5.44199,-6.58209 -8.16602,-12.59413 -8.16602,-18.04221 0,-8.39406 3.51601,-15.30611 10.54802,-20.75419 -5.66404,-5.88605 -8.50801,-11.89812 -8.50801,-18.03617 0,-5.66406 1.75197,-10.65611 5.27398,-14.97615 3.516,-4.29605 8.11801,-6.79805 13.78205,-7.48808 -0.44405,-7.24807 1.92595,-12.25213 7.13997,-14.97015 -2.49003,-2.48402 -3.73199,-6.90007 -3.73199,-13.26611 0,-7.4761 2.48396,-13.72214 7.482,-18.71419 4.97999,-4.98008 11.22596,-7.48808 18.70199,-7.48808 8.17796,0 14.87395,2.85003 20.08801,8.5081 6.58797,-22.45226 20.75398,-33.67837 42.53397,-33.67837 11.33403,0 21.324,4.53605 29.94,13.62015 3.17999,3.39003 4.75797,5.20807 4.75797,5.43006 -2.71195,0 -1.34998,-0.51601 4.08603,-1.52402 5.454,-1.02602 9.40801,-1.54203 11.91599,-1.54203 8.84406,0 16.66802,3.30005 23.49002,9.87611 5.89204,5.90407 9.978,13.37414 12.25198,22.45222 1.57801,0.23417 4.07401,0.90602 7.47002,2.04604 4.992,2.502 7.49397,6.81006 7.49397,12.93012 0,1.12801 -0.91198,3.29401 -2.72399,6.47407 14.51401,8.16606 21.78005,19.50617 21.78005,34.02033 0,4.08603 -1.59603,9.76211 -4.75806,17.01615 5.91602,3.41405 8.86801,8.40611 8.86801,14.98817 z M 396.90603,420.6762 v -4.41606 c 0,-5.21404 -2.54404,-9.98407 -7.65001,-14.29213 -5.106,-4.32003 -10.26,-6.46205 -15.48003,-6.46205 -6.35998,0 -12.25198,1.47601 -17.69397,4.40404 12.02402,-0.66 25.62598,6.24607 40.82401,20.7662 z m -6.12,-42.18043 c -3.39604,-3.87602 -6.34799,-7.83607 -8.84406,-11.9101 -9.53392,2.48402 -14.29793,5.33405 -14.29793,8.49608 2.71799,-0.22209 6.69596,0.28215 11.90398,1.53603 5.22,1.25399 8.97598,1.87799 11.23801,1.87799 z m 20.77196,-10.5661 v -14.97015 c -5.45399,-0.89401 -8.75398,-1.35601 -9.87601,-1.35601 v 5.10605 z m 44.23206,-9.51607 c -2.72406,-1.13401 -7.83003,-3.40805 -15.32404,-6.81009 v 29.26228 c 10.66799,-6.13204 15.76799,-13.6081 15.32404,-22.45219 z m 18.69595,40.1524 -7.47599,-9.1741 c -4.53,3.17401 -9.12604,6.39607 -13.78799,9.69008 -4.65001,3.28204 -8.67001,6.97207 -12.06602,11.06411 10.19402,-5.46603 21.32401,-9.30609 33.33,-11.58009 z"/>
</svg>
