<?xml version="1.0" encoding="UTF-8" standalone="no"?>
<svg xmlns="http://www.w3.org/2000/svg" version="1.1" width="600" height="600">
  <circle style="fill:#c9c4be;stroke-width:6" cx="300" cy="300" r="300"/>
  <polygon transform="scale(6)" points="50.001,98.881 59.803,85.077 62.158,89.157 66.496,89.208 75.001,93.303 75.708,83.891 77.833,80.105 75.479,76.027 92.334,74.439 85.279,59.05 89.99,59.05 92.203,55.318 100,50 92.203,44.681 89.99,40.95 85.279,40.95 92.333,25.559 75.479,23.973 77.833,19.893 75.707,16.111 75,6.699 66.496,10.792 62.158,10.843 59.803,14.922 50,1.118 40.198,14.922 37.843,10.843 33.505,10.792 25,6.699 24.293,16.111 22.168,19.893 24.523,23.973 7.667,25.56 14.722,40.95 10.011,40.95 7.798,44.682 0,50 7.797,55.318 10.011,59.05 14.722,59.05 7.668,74.441 24.523,76.027 22.168,80.105 24.293,83.889 25.001,93.303 33.505,89.209 37.843,89.157 40.198,85.077 "/>
  <path style="fill:#ffffff;stroke-width:6" d="m 422.31,180.552 84.996,-0.23395 -42.69,73.5 -85.008,0.22797 z m 42.294,165.642 42.702,73.488 -85.002,-0.222 -42.696,-73.5 z M 342.3,465.642 300,539.376 257.694,465.642 300,391.908 Z m -164.604,-46.194 -85.002,0.234 42.702,-73.5 85.002,-0.228 z M 135.402,253.806 92.7,180.312 l 85.002,0.228 42.702,73.5 z m 122.304,-119.448 42.3,-73.734 42.3,73.734 -42.3,73.728 z m 265.632,189.93 21.024,-12.138 0,-24.294 -21.024,-12.138 -21.036,12.138 -171.774,-5.478 81.138,-151.5 21.036,-12.144 3e-5,-24.276 -21.036,-12.144 -21.024,12.138 -0.012,24.282 -90.624,146.016 -90.63,-146.016 -0.006,-24.288 -21.018,-12.138 -21.042,12.15 -3e-5,24.276 21.036,12.144 81.132,151.5 -171.768,5.478 -21.042,-12.138 -21.018,12.132 10e-7,24.288 21.018,12.144 21.042,-12.144 171.767999,5.49 -81.138,151.5 -21.03,12.138 -0.006,24.282 21.036,12.138 21.03,-12.138 2e-5,-24.282 90.63,-146.016 90.63,146.016 -1e-5,24.288 21.024,12.138 21.042,-12.144 3e-5,-24.276 -21.042,-12.144 -81.126,-151.5 171.774,-5.49 z"/>
</svg>
