<?xml version="1.0" encoding="UTF-8" standalone="no"?>
<svg xmlns="http://www.w3.org/2000/svg" version="1.1" width="488.70712" height="478.75201">
  <path d="m 366.65633,119.928 84.99515,-0.234 -42.68957,73.5 -85.00715,0.228 z m 42.29358,165.642 42.70157,73.488 -85.00115,-0.222 -42.69557,-73.5 z m -122.30278,119.448 -42.29957,73.734 -42.30558,-73.734 42.30558,-73.734 z m -164.60235,-46.194 -85.00115,0.234 42.701573,-73.5 85.001147,-0.228 z M 79.751202,193.182 37.04963,119.688 l 85.00115,0.228 42.70157,73.5 z M 202.05398,73.734 244.35356,0 l 42.29957,73.734 -42.29957,73.728 z m 265.62934,189.93 21.02379,-12.138 v -24.294 l -21.02379,-12.138 -21.03579,12.138 -171.77228,-5.478 81.13719,-151.5 21.03579,-12.144 V 33.834 L 356.01244,21.69 334.98865,33.828 334.97665,58.11 244.35356,204.126 153.72446,58.11 153.71846,33.822 132.70067,21.684 111.65888,33.834 V 58.11 l 21.03579,12.144 81.13119,151.5 L 42.059579,227.232 21.01779,215.094 0,227.226 v 24.288 l 21.01779,12.144 21.041789,-12.144 171.766281,5.49 -81.13719,151.5 -21.02979,12.138 -0.006,24.282 21.03579,12.138 21.02979,-12.138 v -24.282 l 90.6291,-146.016 90.62909,146.016 v 24.288 l 21.02379,12.138 21.04179,-12.144 v -24.276 l -21.04179,-12.144 -81.12519,-151.5 171.77228,-5.49 z"/>
</svg>
