<?xml version="1.0" encoding="UTF-8" standalone="no"?>
<svg xmlns="http://www.w3.org/2000/svg" version="1.1" width="600" height="600">
  <circle cx="300" cy="300" r="300" style="fill:#cac5c0;stroke-width:6"/>
  <path d="m 568.65598,335.08805 -63.42,76.37397 -15.53999,-15.52797 c 6.042,-15.24601 9.86998,-29.274 11.44199,-42.08402 1.57201,-12.79798 0.92399,-24.65399 -1.944,-35.60398 -0.28784,-1.42802 -0.63601,-2.802 -1.07999,-4.092 -0.426,-1.31403 -0.92999,-2.532 -1.51203,-3.67801 -2.29799,-6.88799 -5.75398,-13.37401 -10.36199,-19.404 -4.602,-6.06001 -11.20798,-13.38 -19.836,-22.00802 l -45.31198,-46.16998 -210.56402,210.576 c -18.41398,18.396 -28.34397,34.374 -29.77799,47.87401 -1.44601,13.53597 5.17802,27.62999 19.85401,42.30597 l 6.042,5.16602 -16.39799,16.39199 -138.072,-138.07201 16.39198,-16.39198 6.9,6.88799 c 14.382,14.964 28.33199,21.73799 41.85599,20.28601 13.51803,-1.42802 29.34603,-11.22599 47.46602,-29.34599 L 375.77998,177.57603 328.752,130.54805 c -13.23001,-12.65402 -24.522,-21.50403 -33.87003,-26.53203 -9.354,-5.039972 -20.21999,-7.127991 -32.57399,-6.25798 -1.73398,0 -3.53999,0.07213 -5.39998,0.210013 -1.872,0.149961 -3.816,0.365979 -5.82602,0.641982 -3.744,0.293884 -7.04999,0.714011 -9.91798,1.302014 -2.88003,0.575991 -5.616,0.995981 -8.20201,1.290001 -0.87001,0.29389 -1.65602,0.504 -2.36999,0.64198 -0.72002,0.13789 -1.65602,0.22209 -2.80801,0.21002 -3.168,0.86997 -6.76802,1.878 -10.78799,3.02398 -4.03802,1.13401 -9.06602,2.448 -15.10802,3.87602 L 187.64998,93.846028 262.29,28.704024 Z" />
</svg>
