<?xml version="1.0" encoding="UTF-8" standalone="no"?>
<svg xmlns="http://www.w3.org/2000/svg" version="1.1" width="600" height="600">
  <circle cx="300" cy="300" r="300" style="fill:#cac5c0;stroke-width:6"/>
  <path d="m 296.33414,566.36396 c -19.45197,19.43999 -50.98797,19.43999 -70.44597,0 L 33.63017,374.10595 c -19.43399,-19.452 -19.43399,-51.00004 0,-70.45204 L 303.67215,33.6179 c 19.458,-19.43999 51.00001,-19.43999 70.44601,0 l 192.258,192.258 c 19.446,19.452 19.446,50.988 0,70.44 z"/>
  <path style="fill:#ffffff" d="M 505.59016,347.23795 H 289.56015 l 79.09801,-56.31002 c -29.376,-23.32201 -63.38401,-34.968 -101.90398,-34.968 -19.25403,0 -32.472,3.666 -39.528,11.01598 -7.11602,7.362 -10.65601,20.658 -10.65601,39.92401 0,53.23802 27.372,110.04003 82.12799,170.37602 l -62.334,63.13799 c -72.54,-88.22998 -108.77398,-167.08798 -108.77398,-236.56802 0,-41.556 12.50399,-74.66999 37.614,-99.26999 25.08598,-24.58799 58.48197,-36.876 100.00198,-36.876 50.718,0 105.99,19.27799 165.858,57.79799 l 46.356,-79.07999 z"/>
</svg>
