<?xml version="1.0" encoding="UTF-8" standalone="no"?>
<svg xmlns="http://www.w3.org/2000/svg" version="1.1" width="600" height="600">
  <circle cx="300" cy="300" r="300" style="fill:#cac5c0;stroke-width:6"/>
  <path d="M 511.9921,353.5201 H 295.9679 l 79.1102,-56.29801 c -29.3884,-23.32198 -63.3958,-34.968 -101.9043,-34.968 -19.2659,0 -32.4839,3.67801 -39.5398,11.01598 -7.1039,7.36203 -10.662,20.67001 -10.662,39.92404 0,53.23796 27.3781,110.04 82.1459,170.37599 l -62.346,63.12602 c -72.54,-88.23002 -108.774,-167.06403 -108.774,-236.54401 0,-41.56801 12.5159,-74.68199 37.6202,-99.26998 25.0798,-24.58806 58.4759,-36.88801 100.0081,-36.88801 50.7178,0 105.9834,19.28996 165.8459,57.81 L 483.84,152.71208 Z"/>
</svg>
