<?xml version="1.0" encoding="UTF-8" standalone="no"?>
<svg xmlns="http://www.w3.org/2000/svg" version="1.1" width="600" height="600">
  <path style="fill:#e49977" d="M 512.094,87.81687 C 566.40598,142.12342 600,217.12417 600,299.97901 600,465.67666 465.67797,600 300,600 217.158,600 142.16998,566.42369 87.875976,512.12314"/>
  <path style="fill:#c1d7e9" d="M 87.875976,512.12314 C 33.581984,457.84058 0,382.82786 0,299.98502 0,134.30536 134.322,0 300,0 382.81198,0 457.80598,33.56434 512.094,87.82288"/>
  <path d="m 529.80004,446.63245 c -10.30801,24.60025 -30.78002,36.87637 -61.44001,36.87637 -5.622,0 -11.71204,0.69 -18.26405,2.10002 -9.83394,2.11803 -14.74798,5.04006 -14.74798,8.7901 0,1.17002 0.81604,2.50801 2.46001,4.04404 1.63203,1.51801 3.04804,2.28601 4.21804,2.28601 -5.86201,0 -1.88405,0.17411 11.92199,0.51 13.81799,0.36002 22.48203,0.534 25.998,0.534 -20.36398,11.93412 -54.42,17.43618 -102.174,16.50017 -15.68402,-0.22209 -29.14202,-7.12806 -40.37403,-20.70621 -11.01001,-12.87611 -16.50598,-27.27026 -16.50598,-43.18242 0,-16.86016 5.67599,-31.18832 17.034,-43.02042 11.34,-11.80812 25.452,-17.71816 42.30601,-17.71816 3.738,0 8.71802,0.82201 14.91599,2.44802 6.20397,1.63801 10.36203,2.46002 12.46199,2.46002 8.66397,0 19.43402,-3.58203 32.31003,-10.7101 12.87598,-7.13407 18.95998,-10.71013 18.25801,-10.71013 -2.34601,24.58227 -10.53601,41.09442 -24.58205,49.50049 -10.06798,5.86805 -15.09598,11.60411 -15.09598,17.20218 0,3.51601 2.1,6.33005 6.312,8.43607 3.276,1.62604 6.90597,2.44802 10.88998,2.44802 6.084,0 12.04803,-3.73804 17.90401,-11.23209 5.84403,-7.4821 8.418,-14.27415 7.71603,-20.36421 -0.69603,-7.03209 -0.22209,-15.45614 1.40994,-25.27824 0.46206,-2.82004 2.16605,-6.27006 5.08805,-10.3621 2.92797,-4.10405 5.56799,-6.62406 7.90199,-7.57208 0,2.124 -0.76202,5.63404 -2.28002,10.53611 -1.52397,4.92003 -2.28001,8.56208 -2.28001,10.88409 0,5.16006 1.404,9.1381 4.21804,11.94013 4.20596,-1.62601 7.94396,-6.90007 11.232,-15.80414 2.808,-6.7801 4.44,-13.34415 4.92001,-19.64423 -9.84001,-0.46801 -19.26604,-4.92002 -28.266,-13.36213 -9.00601,-8.42408 -13.51199,-17.55015 -13.51199,-27.37825 0,-1.62604 0.22209,-3.28204 0.70196,-4.91405 1.39199,2.118 3.498,5.39403 6.31804,9.84008 3.97196,5.85006 7.02,8.77809 9.12597,8.77809 2.808,0 4.212,-2.92803 4.212,-8.77809 0,-7.49405 -1.99197,-14.28012 -5.97,-20.37019 -4.45801,-7.26609 -10.19399,-10.88412 -17.20198,-10.88412 -3.28801,0 -8.19604,1.75202 -14.74801,5.26806 -6.55804,3.50403 -12.52801,5.26806 -17.89801,5.26806 -1.63796,0 -8.90401,-2.11803 -21.77398,-6.32407 22.69794,-3.75005 34.05599,-7.14008 34.05599,-10.19409 0,-7.95011 -15.56401,-13.33814 -46.69804,-16.12818 -3.04797,-0.23384 -8.65793,-0.70201 -16.85398,-1.41002 0.93,-1.16401 7.60798,-2.44202 20.01602,-3.86401 10.52997,-1.15203 17.89797,-1.75802 22.10997,-1.75802 55.70998,0 91.05003,27.03625 106.03801,81.12681 2.58602,-2.14802 3.87005,-5.70006 3.87005,-10.68014 0,-6.40804 -1.872,-14.47212 -5.62201,-24.19823 -1.41004,-3.81003 -3.64205,-9.50409 -6.67804,-17.09415 19.188,24.45025 28.80002,47.62847 28.80002,69.49869 0,11.53211 -2.70601,22.0022 -8.08801,31.39229 -3.49799,6.35406 -10.06801,14.46014 -19.65598,24.35423 -9.60004,9.87011 -16.146,17.51419 -19.66204,22.92624 12.87604,-3.51605 21.30601,-6.21004 25.28405,-8.08206 8.88597,-3.98405 16.96798,-9.96012 24.22198,-17.9102 0,3.06002 -1.29,7.63207 -3.858,13.68614 z M 376.716,308.65509 c 0,4.20604 -2.34597,6.91208 -7.02,8.08806 l -9.12594,1.39204 c -3.28204,1.63201 -8.08205,8.08806 -14.38804,19.31417 -0.71401,-3.50403 -1.758,-8.41808 -3.16801,-14.74212 -2.106,0.2221 -5.60999,2.112 -10.52997,5.61603 -2.10596,1.63802 -5.50204,4.10405 -10.19401,7.37408 1.41,-8.41808 6.10201,-16.95617 14.05198,-25.62624 8.424,-9.58809 16.62001,-14.37617 24.57601,-14.37617 10.53001,-0.0134 15.79798,4.31407 15.79798,12.96015 z m 61.09201,32.31032 c 0,3.97203 -2.16599,7.32006 -6.49799,10.00809 -4.33201,2.68205 -8.60403,4.03806 -12.80999,4.03806 -5.62798,0 -10.66198,-3.14402 -15.10201,-9.48611 -5.38798,-7.71007 -10.88401,-12.75013 -16.50001,-15.09616 1.16403,-1.17001 2.57403,-1.75802 4.22404,-1.75802 2.09399,0 5.66398,1.62604 10.69795,4.90808 5.02203,3.29402 8.24999,4.92002 9.66003,4.92002 1.17003,0 3.09598,-1.626 5.78398,-4.92002 2.68803,-3.28204 5.67602,-4.90808 8.95802,-4.90808 7.72801,0 11.58598,4.10405 11.58598,12.29414 z"/>
  <path d="m 246.69603,288.93289 c -16.15802,16.41617 -36.04199,24.64225 -59.676,24.64225 -26.53199,0 -47.57395,-9.07808 -63.144,-27.24627 -14.71194,-17.31017 -22.06199,-39.36038 -22.06199,-66.16267 0,-28.83031 12.54002,-61.70461 37.63204,-98.61698 20.46597,-30.26432 44.53799,-56.79056 72.22196,-79.57281 -4.03798,18.46218 -6.05401,31.57232 -6.05401,39.35438 0,17.88021 5.61,35.33437 16.86602,52.33855 13.83604,20.17822 24.36597,35.17833 31.57199,44.97644 11.24398,17.01619 16.87196,33.60034 16.87196,49.72252 -0.007,23.95822 -8.08798,44.12444 -24.22797,60.56459 z m -0.43197,-92.31693 c -4.326,-9.66606 -9.36604,-16.08618 -15.13801,-19.2662 0.86997,1.73403 1.29597,4.18205 1.29597,7.36807 0,6.06008 -1.72194,14.70015 -5.184,25.93828 l -5.62798,17.31014 c 0,10.08613 5.04599,15.12619 15.13802,15.12619 10.66201,0 16.00794,-7.06809 16.00794,-21.1862 -0.007,-7.21211 -2.17198,-15.64217 -6.49194,-25.29028 z"/>
</svg>
