<?xml version="1.0" encoding="UTF-8" standalone="no"?>
<svg xmlns="http://www.w3.org/2000/svg" version="1.1" width="600" height="600">
  <path style="fill:#c1d7e9" d="M 512.094,87.816872 C 566.40601,142.12342 600,217.12417 600,299.97902 600,465.67667 465.67801,600 299.99403,600 217.15803,600 142.164,566.42368 87.87001,512.12314"/>
  <path style="fill:#f8f6d8" d="M 87.87601,512.12314 C 33.58202,457.84059 0,382.82786 0,299.98502 0,134.30536 134.31602,0 299.99403,0 382.81802,0 457.80601,33.564337 512.094,87.822877"/>
  <path d="m 460.33207,502.049 c -16.15792,16.43417 -36.04172,24.65426 -59.67623,24.65426 -26.53779,0 -47.57969,-9.0901 -63.14983,-27.24628 -14.71199,-17.30416 -22.05573,-39.3484 -22.05573,-66.16867 0,-28.82427 12.54006,-61.6866 37.62587,-98.60498 20.46017,-30.28229 44.53785,-56.80256 72.22199,-79.58477 -4.03218,18.45616 -6.05414,31.5723 -6.05414,39.36638 0,17.88017 5.60996,35.31636 16.87216,52.32654 13.82999,20.1902 24.36017,35.18434 31.56603,44.97645 11.24374,17.01015 16.87786,33.60029 16.87786,49.73445 0,23.94024 -8.08818,44.12448 -24.22798,60.54662 z M 459.906,409.72009 c -4.33177,-9.65409 -9.37778,-16.08015 -15.14408,-19.24819 0.87025,1.72803 1.29631,4.18805 1.29631,7.35607 0,6.06007 -1.72204,14.71812 -5.1839,25.94424 l -5.62841,17.31018 c 0,10.08012 5.03997,15.13215 15.14408,15.13215 10.65631,0 16.00225,-7.06207 16.00225,-21.1922 0,-7.20606 -2.16622,-15.64817 -6.48625,-25.30225 z"/>
  <path d="m 328.00174,229.58028 c -14.61536,-13.58412 -24.32359,-20.9522 -29.0878,-22.09221 -3.46153,-0.83403 -6.80966,1.18202 -10.03198,6.03008 -3.22232,4.84803 -7.75203,6.57005 -13.60757,5.14805 -2.38261,-0.56402 -7.05053,-2.60405 -13.9984,-6.09607 -5.62775,5.31003 -8.6461,8.8261 -9.06579,10.54809 -0.56999,2.38203 0.53376,5.62807 3.29982,9.72612 2.76003,4.11002 5.36406,6.43206 7.80604,7.02007 1.54189,0.37799 3.73193,0.55201 6.53993,0.54 2.808,-0.0101 4.66189,0.0902 5.55595,0.3063 2.66408,0.62397 2.81404,5.82604 0.47404,15.58215 -2.2199,9.31208 -7.81175,23.11823 -16.7638,41.3524 -0.34857,-23.44821 -3.65409,-35.92835 -9.92999,-37.42834 -0.86991,-0.21035 -2.81438,0.0168 -5.83206,0.66598 -3.03009,0.63601 -5.18423,0.82804 -6.47987,0.51601 -6.28831,-1.51204 -10.54829,-8.60407 -12.78597,-21.28221 -10.33223,-0.86999 -16.54204,3.03602 -18.61835,11.69412 -1.03765,4.35006 0.14426,8.29807 3.53432,11.85011 3.38403,3.56405 4.94369,5.88005 4.69778,6.96005 -1.39192,5.86808 -12.12573,12.79814 -32.12963,20.84424 -10.66202,4.32605 -18.04233,7.36808 -22.12819,9.1321 3.95401,-3.16204 8.21399,-7.54209 12.75577,-13.09814 5.17216,-6.33607 8.23244,-11.43011 9.16844,-15.34817 0.5153,-2.15399 -1.24833,-5.80205 -5.2983,-10.89009 -4.056,-5.09404 -5.55595,-9.79811 -4.5183,-14.12415 0.87595,-3.68402 3.25789,-7.91408 7.15823,-12.72614 -2.03975,-3.91803 -5.00408,-6.36004 -8.90409,-7.29004 -8.66387,-2.07606 -13.67365,-0.29389 -15.02364,5.35202 0.936,-3.89403 0.23484,-0.972 -2.09409,8.77213 -1.50029,7.20003 -7.77619,9.48006 -18.82804,6.84606 -8.45419,-2.03406 -22.17649,-7.37409 -41.18401,-16.03818 23.89183,-0.2402 36.71369,-4.05003 38.47196,-11.41811 -0.20129,0.87599 0,-1.84203 0.57603,-8.11809 0.73773,-6.91809 6.95995,-11.85609 18.64788,-14.78416 0.43814,-10.42812 -3.55781,-16.65014 -12.01805,-18.68416 -1.29564,-0.31201 -4.23582,1.392 -8.77794,5.11803 -4.55956,3.72605 -8.35791,5.22605 -11.388,4.48808 -5.20202,-1.23003 -10.57211,-8.4721 -16.1039,-21.71425 -2.55606,-6.57606 -6.52215,-16.33817 -11.89191,-29.31029 4.36163,3.78604 8.71789,7.5961 13.08556,11.37614 5.77837,4.59604 10.62042,7.35006 14.51438,8.29207 3.03613,0.71999 6.64795,-1.22402 10.84787,-5.83808 4.18819,-4.61406 8.67629,-6.34806 13.43983,-5.19603 0.66627,0.14996 4.68,2.48401 12.07206,7.01403 5.62204,-5.30402 8.79639,-9.46205 9.52808,-12.50411 0.61192,-2.60999 -0.24155,-5.94605 -2.58591,-10.06808 -2.33397,-4.11002 -4.81185,-6.46806 -7.40984,-7.11008 -1.0863,-0.25799 -2.83216,-0.34207 -5.26207,-0.2221 -2.43595,0.10803 -4.19388,0.0268 -5.27414,-0.23383 -3.89967,-0.93001 -4.68604,-6.27009 -2.35241,-16.03217 0.61225,-2.60402 6.66673,-16.848177 18.13224,-42.738442 -0.99606,3.186023 -1.03766,9.606077 -0.12749,19.218227 1.0863,11.718103 4.12209,18.156175 9.10873,19.368155 0.86353,0.20398 2.75365,-0.0302 5.66968,-0.71398 2.90965,-0.67202 5.11814,-0.84003 6.63017,-0.46801 4.97992,1.188 8.424,4.99806 10.3319,11.4061 l 2.77781,9.9361 c 4.54245,1.09201 8.7303,0.37799 12.53401,-2.14803 3.81614,-2.52001 6.27624,-6.06608 7.36187,-10.61411 1.13427,-4.77006 0,-8.87408 -3.40751,-12.336109 -3.42026,-3.450051 -4.97423,-5.826073 -4.64981,-7.128066 1.08562,-4.548035 10.07961,-10.524105 26.96956,-17.934182 13.55992,-5.91008 22.25399,-9.222111 26.09394,-9.906103 -12.32367,10.350121 -19.19404,18.420168 -20.58597,24.282273 -0.72598,3.035993 0.32542,6.738029 3.18643,11.088093 3.56955,5.202064 5.47141,8.754074 5.69954,10.626094 0.97189,5.52004 -0.87595,12.28212 -5.54421,20.33419 4.86619,5.52007 8.81451,8.6341 11.86238,9.37211 6.26382,1.50003 10.19402,-1.00204 11.74798,-7.50009 0.16103,-0.648 0.37976,-2.77203 0.67197,-6.37205 0.2751,-3.60001 0.58777,-5.58606 0.90581,-5.97607 1.60193,-2.82601 7.9201,-2.91602 18.97229,-0.26973 6.9358,1.66201 20.87382,7.05607 41.83184,16.19414 -5.07621,0.15601 -12.6964,0.39001 -22.85385,0.71999 -9.29424,0.52202 -14.32818,2.41206 -15.11456,5.65806 -0.35192,1.52406 -0.44317,4.24808 -0.23819,8.18412 0.20465,3.93604 0.0973,6.79805 -0.31535,8.52007 -0.72029,3.04203 -3.34814,5.37605 -7.86643,7.05607 l -12.93627,5.15406 c 1.47647,5.38202 2.52016,8.6281 3.18643,9.69008 1.55396,3.12007 4.15799,5.12407 7.84194,6.01207 2.60436,0.62401 5.53179,-1.08601 8.79002,-5.12407 3.25218,-4.03202 7.27195,-5.47203 12.03582,-4.33802 5.85017,1.39201 11.16591,8.38809 15.94824,21.00021 2.64563,7.04406 6.83381,17.79015 12.5518,32.2203 z m -67.64968,-36.12632 c 3.3119,-13.87217 1.09771,-27.1263 -6.64828,-39.73841 -7.75203,-12.62416 -18.56368,-20.59822 -32.42386,-23.91626 -14.09368,-3.37202 -27.43756,-1.236 -40.02593,6.41408 -12.58769,7.62607 -20.68795,18.46818 -24.26992,32.50232 -3.54002,13.81812 -1.25974,27.03028 6.84622,39.61841 8.0996,12.60014 19.07999,20.55622 32.95762,23.87422 14.73009,3.52204 28.18804,1.65003 40.35034,-5.64609 12.15022,-7.28403 19.88984,-18.33015 23.21381,-33.10827 z m -4.88397,-1.16404 c -3.16194,13.21813 -10.21784,23.11223 -21.18011,29.63427 -10.95591,6.54009 -23.05749,8.23813 -36.26415,5.07609 -12.78597,-3.06004 -22.66161,-10.12812 -29.63968,-21.18623 -6.97806,-11.0581 -8.93393,-22.96823 -5.87398,-35.77235 3.01801,-12.57014 10.18797,-22.24821 21.55182,-29.04629 11.37593,-6.77406 23.33426,-8.67007 35.89813,-5.65806 12.56388,3.00003 22.36807,10.15812 29.39411,21.4622 7.0257,11.31612 9.07216,23.12427 6.11386,35.49037 z"/>
</svg>
