<?xml version="1.0" encoding="UTF-8" standalone="no"?>
<svg xmlns="http://www.w3.org/2000/svg" version="1.1" width="600" height="600">
  <circle cx="300" cy="300" r="300" style="fill:#cac5c0;stroke-width:6"/>
  <path d="m 339.846,480 v -19.782 c 28.218,-3.126 42.354,-11.322 42.354,-24.492 0,-9.492 -3.774,-18.984 -11.298,-28.476 l -78.048,-96.06 -61.638,72.666 c -15.42,17.838 -23.178,32.592 -23.178,44.124 0,17.856 14.124,28.626 42.42,32.322 V 480 H 100.152 v -19.722 c 19.032,-3.654 35.202,-10.512 48.612,-20.496 9.234,-7.338 21.822,-20.226 37.71,-38.628 l 92.694,-107.49 -107.202,-129.96 c -13.89,-16.782 -24.726,-27.798 -32.406,-33.06 -10.344,-7.35 -24.726,-12.072 -43.218,-14.166 V 96 h 177.234 v 19.71 c -26.718,5.262 -40.056,13.404 -40.056,24.444 0,7.38 3.564,15.516 10.758,24.432 l 70.896,85.932 57.048,-70.146 c 10.266,-12.624 15.42,-23.646 15.42,-33.12 0,-15.774 -12.63,-26.04 -37.806,-30.774 V 96 h 141.072 v 19.746 c -12.33,2.634 -20.838,5.004 -25.38,7.128 -15.42,7.374 -38.976,29.214 -70.782,65.52 -5.112,5.814 -26.718,32.358 -64.734,79.71 l 113.862,140.178 c 24.678,30.468 49.83,47.826 75.516,51.996 V 480 Z"/>
</svg>
