<?xml version="1.0" encoding="UTF-8" standalone="no"?>
<svg xmlns="http://www.w3.org/2000/svg" version="1.1" width="600" height="600">
  <circle cx="300" cy="300" r="300" style="fill:#cac5c0;stroke-width:6"/>
  <path d="m 329.46,394.17 c 0,23.928 3.924,40.758 11.778,50.484 7.854,9.726 21.126,14.586 39.834,14.586 l 4.488,-0.57 V 480 H 212.784 v -21.318 h 5.604 c 18.702,0.378 31.98,-4.302 39.834,-14.028 C 266.076,434.94 270,418.29 270,394.74 V 319.56 L 160.05,158.562 c -4.488,-5.982 -8.412,-11.22 -11.784,-15.708 -3.366,-4.488 -6.546,-8.034 -9.534,-10.656 -4.866,-4.116 -10.008,-7.014 -15.426,-8.7 -5.424,-1.686 -12.438,-3.084 -21.036,-4.206 V 97.41 H 270 v 21.318 c -16.83,1.5 -28.248,3.84 -34.218,7.008 -5.988,3.18 -8.976,9.072 -8.976,17.67 0,3.744 0.744,7.488 2.238,11.22 1.494,3.744 3.552,7.668 6.174,11.778 l 85.272,123.414 62.268,-91.44 c 5.976,-8.226 10.278,-15.33 12.9,-21.318 2.61,-5.976 4.29,-11.586 5.046,-16.824 0,-0.75 0,-1.494 0,-2.244 0,-0.75 0,-1.494 0,-2.25 0,-11.586 -3.18,-20.196 -9.534,-25.8 -6.36,-5.616 -17.394,-9.162 -33.096,-10.656 V 97.404 h 138.558 v 21.318 c -4.488,0.75 -8.61,1.776 -12.336,3.084 -3.744,1.314 -7.296,3.09 -10.662,5.334 -5.988,3.366 -12.156,8.694 -18.51,15.99 -6.366,7.29 -14.022,17.49 -22.998,30.576 L 329.466,319.56 v 74.616 h -0.006 z"/>
</svg>
