<?xml version="1.0" encoding="UTF-8" standalone="no"?>
<svg xmlns="http://www.w3.org/2000/svg" version="1.1" width="600" height="600">
   <circle cx="300" cy="300" r="300" style="fill:#cac5c0;stroke-width:6"/>
  <path d="M 446.13,479.994 H 123.57 V 463.728 L 379.38,120.408 H 265.506 c -18.708,0.378 -33.102,2.346 -43.2,5.886 -10.098,3.564 -19.452,10.38 -28.05,20.478 -0.75,0.756 -1.398,1.5 -1.962,2.244 -0.558,0.756 -1.218,1.5 -1.962,2.238 -1.5,2.25 -2.898,4.212 -4.212,5.892 -1.314,1.68 -2.52,3.462 -3.642,5.334 -0.378,1.128 -0.936,2.244 -1.68,3.366 -0.75,1.128 -1.5,2.25 -2.244,3.372 -0.756,2.244 -1.686,4.59 -2.802,7.008 -1.128,2.436 -2.442,5.334 -3.924,8.694 l -20.202,-0.564 V 97.41 H 457.92 v 15.144 L 199.878,456.99 h 111.63 c 16.83,0.378 30.198,0 40.11,-1.128 9.9,-1.122 19.158,-3.54 27.768,-7.278 1.122,-0.378 2.148,-0.75 3.084,-1.128 0.936,-0.378 1.77,-0.744 2.526,-1.128 5.238,-2.616 10.284,-5.61 15.144,-8.976 4.854,-3.366 9.72,-7.29 14.586,-11.778 3.366,-3.372 6.732,-7.008 10.098,-10.932 3.366,-3.93 6.918,-8.328 10.662,-13.182 l 14.586,-20.766 h 21.312 z"
     /></svg>
