<?xml version="1.0" encoding="UTF-8" standalone="no"?>
<svg xmlns="http://www.w3.org/2000/svg" version="1.1" width="600" height="600">
  <circle cx="300" cy="300" r="300" style="fill:#cac5c0;stroke-width:6"/>
  <path d="m 299.616,271.5601 c 43.134,-60.258 91.206,-90.408 144.174,-90.408 35.322,0 63.564,10.818 84.552,32.358 21.048,21.564 31.584,50.004 31.584,85.35 0,35.37 -10.536,64.182 -31.584,86.52 -20.988,22.35 -48.984,33.516 -83.79,33.516 -51.948,0 -100.29,-30.126 -144.936,-90.408 -45.726,60.282 -93.552,90.408 -143.412,90.408 -35.334,0 -63.552,-11.028 -84.552,-33.108 -21.06,-22.116 -31.584,-50.826 -31.584,-86.13 0,-35.346 10.524,-63.912 31.584,-85.734 21,-21.81 49.218,-32.754 84.552,-32.754 50.934,-0.024 98.7,30.132 143.412,90.39 z m -22.584,28.872 c -40.536,-55.596 -81.378,-83.412 -122.412,-83.412 -24.42,0 -43.896,7.674 -58.428,22.992 -14.58,15.318 -21.81,35.202 -21.81,59.628 0,24.408 7.23,44.556 21.81,60.408 14.532,15.858 34.008,23.754 58.428,23.754 39.006,0 79.788,-27.786 122.412,-83.37 z m 44.4,0 c 42.126,55.584 83.4,83.37 123.948,83.37 23.838,0 42.984,-7.638 57.258,-22.992 14.274,-15.318 21.444,-35.202 21.444,-59.628 0,-25.428 -7.17,-45.858 -21.444,-61.17 -14.274,-15.312 -33.924,-22.992 -58.854,-22.992 -24.936,0 -48.342,8.85 -70.146,26.508 -13.512,10.908 -30.888,29.88 -52.206,56.904 z"/>
</svg>
